<svg xmlns="http://www.w3.org/2000/svg" viewBox="0 0 30 30"><defs><style>.a{opacity:0.9;}.b{fill:#fff;}</style></defs><title>header_ticket</title><g class="a"><path class="b" d="M25,6a2,2,0,0,1,2,2v4.14a2.85,2.85,0,0,0,0,5.66V22a2,2,0,0,1-2,2H5a2,2,0,0,1-2-2V17.83A2.75,2.75,0,0,0,5.49,15v-.23A2.74,2.74,0,0,0,3,12.16V8A2,2,0,0,1,5,6H25m0-1H5A3,3,0,0,0,2,8v5.05c2,0,2.41.94,2.48,1.84v0c0,.93-.35,2-2.49,2v5a3,3,0,0,0,3,3H25a3,3,0,0,0,3-3v-5c-2.13,0-2.49-1.16-2.49-1.91s.38-1.93,2.49-1.93V8a3,3,0,0,0-3-3Z"/><path class="b" d="M10,7V7m1-1H9V9h2V6Z"/><path class="b" d="M10,12v0m1-1H9v3h2V11Z"/><path class="b" d="M10,17v0m1-1H9v3h2V16Z"/><path class="b" d="M10,22v0m1-1H9v3h2V21Z"/></g></svg>