<svg xmlns="http://www.w3.org/2000/svg" viewBox="0 0 30 30"><defs><style>.a{opacity:0.9;}.b{fill:#fff;}</style></defs><title>header_access</title><g class="a"><path class="b" d="M24,10.91a3,3,0,0,1,3,3v9H3v-10a2,2,0,0,1,2-2H24m0-1H5a3,3,0,0,0-3,3v11H28v-10a4,4,0,0,0-4-4Z"/><path class="b" d="M20.23,5.71l2.49,1.7-2.49,1.7-2.49-1.7,2.49-1.7m0-1.21L16,7.41l4.27,2.91L24.5,7.41,20.23,4.5Z"/><path class="b" d="M9.23,5.71l2.49,1.7L9.23,9.11,6.74,7.41l2.49-1.7m0-1.21L5,7.41l4.27,2.91L13.5,7.41,9.23,4.5Z"/><rect class="b" x="7" y="14.91" width="4" height="3"/><rect class="b" x="13" y="14.91" width="4" height="3"/><rect class="b" x="19" y="14.91" width="4" height="3"/><path class="b" d="M7.5,25.91a2,2,0,0,0,2-2h-4A2,2,0,0,0,7.5,25.91Z"/><path class="b" d="M12,25.91a2,2,0,0,0,2-2H10A2,2,0,0,0,12,25.91Z"/><path class="b" d="M19.5,25.91a2,2,0,0,0,2-2h-4A2,2,0,0,0,19.5,25.91Z"/><path class="b" d="M25.27,25.45A2,2,0,0,0,26,23.91H22a2,2,0,0,0,.45,1.27A2,2,0,0,0,25.27,25.45Z"/></g></svg>