<svg xmlns="http://www.w3.org/2000/svg" width="36.09" height="24.06" viewBox="0 0 36.09 24.06"><defs><style>.cls-1{fill:#13b6c8;}</style></defs><g id="レイヤー_2" data-name="レイヤー 2"><g id="レイヤー_4" data-name="レイヤー 4"><path class="cls-1" d="M32.83,1.34a1.94,1.94,0,0,1,1.92,2v6.6a2.33,2.33,0,0,0,0,4.24v6.6a1.94,1.94,0,0,1-1.92,2H3.26a1.94,1.94,0,0,1-1.92-2V14.16A2.25,2.25,0,0,0,2.7,12.07v-.16l0-.12A2.23,2.23,0,0,0,1.34,9.9V3.31a1.94,1.94,0,0,1,1.92-2H32.83m0-1.34H3.26A3.28,3.28,0,0,0,0,3.31V11c1.11,0,1.31.52,1.35,1v0c0,.5-.2,1.06-1.36,1.06v7.68a3.28,3.28,0,0,0,3.26,3.31H32.83a3.28,3.28,0,0,0,3.26-3.31V13.07c-1.16,0-1.35-.63-1.35-1s.2-1,1.35-1V3.31A3.28,3.28,0,0,0,32.83,0Z"/><path class="cls-1" d="M6.79,2.82v0m.56-.55H6.24V3.92H7.35V2.27Z"/><path class="cls-1" d="M6.79,5.4v0m.56-.55H6.24V6.5H7.35V4.85Z"/><path class="cls-1" d="M6.79,8V8m.56-.55H6.24V9.08H7.35V7.43Z"/><path class="cls-1" d="M6.79,10.56v0M7.35,10H6.24v1.66H7.35V10Z"/><path class="cls-1" d="M6.79,13.13v0m.56-.55H6.24v1.66H7.35V12.58Z"/><path class="cls-1" d="M6.79,15.71v0m.56-.55H6.24v1.66H7.35V15.16Z"/><path class="cls-1" d="M6.79,18.29v0m.56-.55H6.24v1.65H7.35V17.74Z"/><path class="cls-1" d="M6.79,20.81v0m.56-.49H6.24v1.47H7.35V20.32Z"/><path class="cls-1" d="M10.82,9.09H12.6c1.32,0,2.25.45,2.25,1.78s-.93,1.88-2.21,1.88h-.89V15h-.93ZM12.55,12c.94,0,1.39-.36,1.39-1.13s-.49-1-1.42-1h-.77V12Z"/><path class="cls-1" d="M18.72,13.3h-2L16.17,15h-1l2-5.89h1.07l2,5.89h-1Zm-.23-.73-.23-.79c-.2-.64-.38-1.3-.56-2h0c-.17.67-.35,1.32-.54,2l-.24.79Z"/><path class="cls-1" d="M20.56,14.22l.54-.64a2.31,2.31,0,0,0,1.57.69c.71,0,1.11-.33,1.11-.83s-.4-.7-.94-.94L22,12.15a1.69,1.69,0,0,1-1.2-1.55A1.76,1.76,0,0,1,22.76,9a2.55,2.55,0,0,1,1.78.74l-.49.6a1.86,1.86,0,0,0-1.29-.53c-.6,0-1,.29-1,.76s.48.69,1,.88l.8.35a1.64,1.64,0,0,1,1.2,1.59,1.83,1.83,0,0,1-2.07,1.71A2.92,2.92,0,0,1,20.56,14.22Z"/><path class="cls-1" d="M25.42,14.22l.54-.64a2.31,2.31,0,0,0,1.57.69c.71,0,1.11-.33,1.11-.83s-.4-.7-.94-.94l-.82-.35a1.7,1.7,0,0,1-1.19-1.55A1.75,1.75,0,0,1,27.62,9a2.52,2.52,0,0,1,1.78.74l-.48.6a1.88,1.88,0,0,0-1.3-.53c-.6,0-1,.29-1,.76s.47.69.95.88l.81.35a1.65,1.65,0,0,1,1.2,1.59,1.84,1.84,0,0,1-2.07,1.71A3,3,0,0,1,25.42,14.22Z"/></g></g></svg>