<svg xmlns="http://www.w3.org/2000/svg" width="32.31" height="33.87" viewBox="0 0 32.31 33.87"><defs><style>.cls-1{fill:#13b6c8;}</style></defs><g id="レイヤー_2" data-name="レイヤー 2"><g id="レイヤー_4" data-name="レイヤー 4"><path class="cls-1" d="M28.41,33.87H17.79V32.61H27.86L31,7.81H15.25l1.05,8.48-1.25.15L13.91,7.26a.61.61,0,0,1,.15-.5.64.64,0,0,1,.47-.21H31.68a.64.64,0,0,1,.47.21.65.65,0,0,1,.15.5L29,33.32A.63.63,0,0,1,28.41,33.87Z"/><rect class="cls-1" x="25.69" width="1.26" height="13.17"/><path class="cls-1" d="M17.79,33.87H5.31a.63.63,0,0,1-.61-.44L1.87,24A.62.62,0,0,1,2,23.38,5,5,0,0,1,8.52,23a5,5,0,0,1,6.05,0,5,5,0,0,1,6.48.4.6.6,0,0,1,.16.62l-2.82,9.41A.63.63,0,0,1,17.79,33.87Zm-12-1.26H17.32L19.89,24a3.7,3.7,0,0,0-4.87.25.64.64,0,0,1-.89,0,3.75,3.75,0,0,0-5.17,0,.62.62,0,0,1-.89,0A3.73,3.73,0,0,0,3.19,24Z"/><path class="cls-1" d="M21,24.36l-.69-1.05c.85-.57,1.78-1.48,1.43-2.66-.59-2-4.37-4-10.22-4s-9.62,2.08-10.21,4c-.36,1.18.58,2.1,1.43,2.66l-.7,1.05c-2.3-1.52-2.2-3.21-1.94-4.07.86-2.86,5.66-4.94,11.42-4.94S22.11,17.43,23,20.28C23.24,21.15,23.33,22.83,21,24.36Z"/><rect class="cls-1" x="15.28" y="12.54" width="15.57" height="1.26"/></g></g></svg>