<svg xmlns="http://www.w3.org/2000/svg" width="34.99" height="28.81" viewBox="0 0 34.99 28.81"><defs><style>.cls-1{fill:#13b6c8;}</style></defs><g id="レイヤー_2" data-name="レイヤー 2"><g id="レイヤー_4" data-name="レイヤー 4"><path class="cls-1" d="M25.21,1.63l3.36,2.28L25.21,6.2,21.86,3.91l3.35-2.28m0-1.63L19.47,3.91l5.74,3.92L31,3.91,25.21,0Z"/><path class="cls-1" d="M10.41,1.63l3.36,2.28L10.41,6.2,7.06,3.91l3.35-2.28m0-1.63L4.67,3.91l5.74,3.92,5.75-3.92L10.41,0Z"/><rect class="cls-1" x="7.4" y="13.33" width="4.04" height="5.38" transform="translate(-6.6 25.44) rotate(-90)"/><rect class="cls-1" x="15.47" y="13.33" width="4.04" height="5.38" transform="translate(1.47 33.52) rotate(-90)"/><rect class="cls-1" x="23.55" y="13.33" width="4.04" height="5.38" transform="translate(9.54 41.59) rotate(-90)"/><path class="cls-1" d="M6.72,28.81a2.69,2.69,0,0,0,2.69-2.69H4A2.69,2.69,0,0,0,6.72,28.81Z"/><path class="cls-1" d="M12.77,28.81a2.7,2.7,0,0,0,2.7-2.69H10.08A2.7,2.7,0,0,0,12.77,28.81Z"/><path class="cls-1" d="M22.87,28.81a2.7,2.7,0,0,0,2.69-2.69H20.17A2.7,2.7,0,0,0,22.87,28.81Z"/><path class="cls-1" d="M30.64,28.19a2.67,2.67,0,0,0,1-2.07H26.24a2.64,2.64,0,0,0,.61,1.71A2.68,2.68,0,0,0,30.64,28.19Z"/><path class="cls-1" d="M29.6,7.28H5.38A5.38,5.38,0,0,0,0,12.66V26.12H35V12.66A5.38,5.38,0,0,0,29.6,7.28Zm4,17.49H1.35V12.66a4,4,0,0,1,4-4H29.6a4,4,0,0,1,4,4Z"/></g></g></svg>