<svg xmlns="http://www.w3.org/2000/svg" viewBox="0 0 50 40"><defs><style>.a{fill:#18b7cd;}</style></defs><title>icon_r2</title><path class="a" d="M22.36,7.31v5.38a.62.62,0,0,1-.62.62h-.17a.62.62,0,0,1-.62-.62V7.28a1.06,1.06,0,0,0-1.17-1.15,1.06,1.06,0,0,0-1.17,1.15v5.41a.62.62,0,0,1-.62.62h-.17a.62.62,0,0,1-.62-.62V7.31a1.13,1.13,0,1,0-2.26,0v5.14c0,2.85.67,3.6,1.79,4.49.91.71,1.69,1.12,1.69,2.9V33.29h2.72V19.85c0-1.78.78-2.19,1.69-2.9,1.12-.89,1.8-1.64,1.79-4.49V7.32A1.13,1.13,0,1,0,22.36,7.31Z"/><path class="a" d="M31.13,7.84c-.57,1.62-2.24,5.43-2.35,8.79-.16,5.21,3,4.44,3.09,7.86v8.83h2.72V7.84C34.6,5.86,32,5.31,31.13,7.84Z"/></svg>