<svg xmlns="http://www.w3.org/2000/svg" viewBox="0 0 50 40"><defs><style>.a{fill:#18b7cd;}</style></defs><title>icon_r3</title><path class="a" d="M29.22,7.05A3.08,3.08,0,1,1,25.9,4.24,3.07,3.07,0,0,1,29.22,7.05Z"/><path class="a" d="M29.24,17.7h0S29.24,17.72,29.24,17.7Z"/><path class="a" d="M33.55,21.13l-2.19-4.48a.71.71,0,0,0-.1-.14.94.94,0,0,0-.2-.33,16.32,16.32,0,0,0-2.32-3.29,3.19,3.19,0,0,0-2.39-1.05,3.08,3.08,0,0,0-2.74,1.58l-2,3.59-3.61,3a1,1,0,0,0-.18,1.35,1,1,0,0,0,1.35.18L23,18.87c0,1.05-.35,14.67-.35,14.67a1.26,1.26,0,0,0,2.5.24l.94-6.67.27.69c.15.33,6.45,2.9,6.45,2.9a1.13,1.13,0,0,0,.94-2.06l-4.59-3.05L27.94,22.2c0-.67.59-5.23.59-5.23l.7.73h0l2.62,4.35a1,1,0,1,0,1.69-.92Z"/></svg>