<svg xmlns="http://www.w3.org/2000/svg" viewBox="0 0 50 40"><defs><style>.a{fill:#18b7cd;fill-rule:evenodd;}</style></defs><title>icon_r1</title><path class="a" d="M46.89,21.42c0-3.37-1.56-5.88-2.64-5.88s-1.55.79-2.38,2.2-1.39,2.67-2.68,2.36-2.08-2.27-2.78-3.94c-1.37-3.25-2-4.5-3-4.5s-1.94,1.19-3.31,4.3c-.85,1.91-1.67,3.95-2.76,3.95s-1.7-1-2.79-2.44c-.69-.9-1.28-1.49-1.91-1.5s-1.41.62-2.08,1.68c-1.26,2-1.91,3.34-3.06,3.34s-1.68-1.16-2.58-3.33c-.31-.74-.75-1.95-1.21-2.85s-.92-1.5-1.59-1.5c-1.15,0-1.86,1.79-2.6,3.89-.45,1.3-.77,3.32-2.23,3.32s-1.86-1.73-3-1.73-1.88,1.52-1.86,3.55c0,3.07,1.1,3.86,1.87,3.86s1.21-.67,1.77-1.31.84-1,1.39-1,1,.38,1.45,1.77c.25.87.75,2.57,1.14,3.66.57,1.57,1.43,2.18,2.06,2.18S13.33,31,14,29.4s1.07-2.65,1.48-3.57,1-1.86,2-1.86,1.67.7,2.56,2.46c1.21,2.42,2,2.95,2.75,2.95s1.52-1.25,2.48-3.59c.76-1.83,1.19-3.08,2.14-3,1.14.12,1.79,2.77,2.24,4.32.61,2.11,1.91,7.4,3.87,7.4,1.74,0,2.88-5.37,3.9-9.21.58-2.16,1.62-2.47,2.11-2.47,1.1,0,1.61,1.46,2.37,3,.66,1.29,1.09,1.86,2,1.86,1.35,0,3-2.39,3-6.27"/><path class="a" d="M24,13.2a1.44,1.44,0,1,1-1.44-1.44A1.44,1.44,0,0,1,24,13.2"/><path class="a" d="M35.78,7c0,1.5-1.28,3-2.4,3S31,8.51,31,7a2.4,2.4,0,1,1,4.8,0"/></svg>