<svg xmlns="http://www.w3.org/2000/svg" width="38.22" height="28.16" viewBox="0 0 38.22 28.16"><defs><style>.cls-1{fill:#13b6c8;}</style></defs><g id="レイヤー_2" data-name="レイヤー 2"><g id="レイヤー_4" data-name="レイヤー 4"><path class="cls-1" d="M30.66,28.16a.64.64,0,0,1-.55-.33c-.06-.12-.13-.24-.19-.37A9,9,0,0,1,29.05,21c-2.8-2.21-5.37-3.37-9.51-5.23l-1.18-.53c-.84-.35-1.7-.68-2.58-1a10.45,10.45,0,0,0,.46,2.67,1.28,1.28,0,0,1-1.92,1.45,8.35,8.35,0,0,1-3.3-4,9,9,0,0,1-.45-1.62,49.73,49.73,0,0,0-5.53-1l-.17,0-.18,0a9.92,9.92,0,0,1-3.21-.88C.16,10.07,0,9.34,0,8.84S.43,7.58,2.24,7.26A2.77,2.77,0,0,0,4.06,6.11a8.63,8.63,0,0,1,7.42-3.79,13.92,13.92,0,0,1,4.41.78c.16-.16.33-.31.5-.45A11,11,0,0,1,23.49,0h.16a1.24,1.24,0,0,1,1,.78,1.25,1.25,0,0,1-.33,1.37,14.46,14.46,0,0,0-2.94,3.71A30.49,30.49,0,0,1,25.21,9a29.43,29.43,0,0,1,6.87,9.64c2.13.05,4.5,2,5.91,4.9l.18.38a.63.63,0,0,1-.3.81,5.49,5.49,0,0,1-4.43-.25,5.45,5.45,0,0,1-2.51,3.66A.52.52,0,0,1,30.66,28.16ZM15.16,12.73a.64.64,0,0,1,.2,0c1.18.4,2.35.84,3.48,1.31l1.21.55c4.26,1.91,7.07,3.17,10.13,5.68a.62.62,0,0,1,.18.73c-.62,1.39-.4,3.55.53,5.58a4.56,4.56,0,0,0,1.39-3v-.26a.62.62,0,0,1,1-.5,4.58,4.58,0,0,0,3.43.87c-1.28-2.42-3.38-4.08-5-3.89a.61.61,0,0,1-.64-.39,28.14,28.14,0,0,0-6.74-9.61A29,29,0,0,0,20.24,6.6.63.63,0,0,1,20,5.8,15.37,15.37,0,0,1,23.5,1.24a9.85,9.85,0,0,0-6.31,2.35q-.36.31-.69.66a.64.64,0,0,1-.66.15,13.12,13.12,0,0,0-4.36-.83,7.41,7.41,0,0,0-6.4,3.26A4.09,4.09,0,0,1,2.45,8.49c-.94.16-1.2.45-1.21.5s.12.3.8.64a8.68,8.68,0,0,0,2.78.76l.27,0h.1a52.61,52.61,0,0,1,6.09,1.13.61.61,0,0,1,.46.53,7.49,7.49,0,0,0,.44,1.75A7.22,7.22,0,0,0,15,17.3l.06-.05a11.75,11.75,0,0,1-.51-3.92.63.63,0,0,1,.27-.49A.66.66,0,0,1,15.16,12.73Z"/><path class="cls-1" d="M9.88,7.64a.71.71,0,1,1,.71-.7A.72.72,0,0,1,9.88,7.64Z"/></g></g></svg>