<svg xmlns="http://www.w3.org/2000/svg" viewBox="0 0 18 21.45"><defs><style>.cls-1{fill:#13bed0;}</style></defs><title>icon_r4</title><g id="レイヤー_2" data-name="レイヤー 2"><g id="レイヤー_6" data-name="レイヤー 6"><path class="cls-1" d="M4.82,5.47a.65.65,0,0,1,0-1.29h8.36a.65.65,0,0,1,0,1.29Z"/><path class="cls-1" d="M4.82,9.65a.65.65,0,0,1,0-1.3h8.36a.65.65,0,0,1,0,1.3Z"/><path class="cls-1" d="M4.82,13.82a.65.65,0,0,1,0-1.29h8.36a.65.65,0,0,1,0,1.29Z"/><path class="cls-1" d="M11.32,21.45a.66.66,0,0,1-.65-.65V18.46H7.33V20.8a.65.65,0,1,1-1.3,0v-3a.66.66,0,0,1,.65-.65h4.64a.66.66,0,0,1,.65.65v3A.66.66,0,0,1,11.32,21.45Z"/><path class="cls-1" d="M17.35,21.45a.66.66,0,0,1-.65-.65V1.3H1.3V20.8a.66.66,0,0,1-.65.65A.66.66,0,0,1,0,20.8V.65A.65.65,0,0,1,.65,0h16.7A.65.65,0,0,1,18,.65V20.8A.66.66,0,0,1,17.35,21.45Z"/></g></g></svg>