<svg xmlns="http://www.w3.org/2000/svg" width="30.7" height="32.58" viewBox="0 0 30.7 32.58"><defs><style>.cls-1{fill:#13b6c8;}</style></defs><g id="レイヤー_2" data-name="レイヤー 2"><g id="レイヤー_4" data-name="レイヤー 4"><path class="cls-1" d="M5.46,25.23V24h14l.84-3.25h-16L0,6H24.07l1.56-6H30.7V1.27H26.61l-6.18,24Zm11.32-5.79h3.83L22,13.94H16.78Zm-6.89,0h5.62v-5.5H9.89Zm-4.71,0H8.62v-5.5h-5Zm11.6-6.76h5.58L23.74,7.3h-7Zm-6.89,0h5.62V7.3H9.89Zm-6.65,0H8.62V7.3H1.69Z"/><path class="cls-1" d="M7.15,32.45a2.6,2.6,0,1,1,2.6-2.6A2.6,2.6,0,0,1,7.15,32.45Zm0-3.92a1.33,1.33,0,0,0,0,2.65,1.33,1.33,0,1,0,0-2.65Z"/><path class="cls-1" d="M18.13,32.58A2.6,2.6,0,1,1,20.72,30,2.61,2.61,0,0,1,18.13,32.58Zm0-3.92A1.33,1.33,0,1,0,19.45,30,1.33,1.33,0,0,0,18.13,28.66Z"/></g></g></svg>