<svg xmlns="http://www.w3.org/2000/svg" viewBox="0 0 15 15"><defs><style>.a{fill:#eef0f3;}</style></defs><title>language</title><path class="a" d="M13.7,3.28a6,6,0,0,0-.42-.57,7.52,7.52,0,0,0-11.56,0,6,6,0,0,0-.42.57,7.5,7.5,0,0,0,0,8.44,5.84,5.84,0,0,0,.42.56,7.5,7.5,0,0,0,11.56,0,5.84,5.84,0,0,0,.42-.56,7.5,7.5,0,0,0,0-8.44Zm-.12,3.87H11.3A11.59,11.59,0,0,0,11,4.72a8.58,8.58,0,0,0,1.57-.64A6,6,0,0,1,13.58,7.15ZM7.85,1.49A3,3,0,0,1,9.58,3.07a6.45,6.45,0,0,1,.51,1.16,10.63,10.63,0,0,1-2.24.29Zm-.7,0v3a10.63,10.63,0,0,1-2.24-.29,6.45,6.45,0,0,1,.51-1.16A3,3,0,0,1,7.15,1.49Zm0,3.73V7.15H4.41a10,10,0,0,1,.3-2.24A11.8,11.8,0,0,0,7.15,5.22Zm0,2.63V9.78a11.8,11.8,0,0,0-2.44.31,10,10,0,0,1-.3-2.24Zm0,2.63v3a3,3,0,0,1-1.73-1.58,6.45,6.45,0,0,1-.51-1.16A10.63,10.63,0,0,1,7.15,10.48Zm.7,3v-3a10.63,10.63,0,0,1,2.24.29,7.25,7.25,0,0,1-.51,1.16A3,3,0,0,1,7.85,13.51Zm0-3.73V7.85h2.74a10,10,0,0,1-.3,2.24A11.8,11.8,0,0,0,7.85,9.78Zm0-2.63V5.22a11.8,11.8,0,0,0,2.44-.31,10,10,0,0,1,.3,2.24ZM12.1,3.51A8,8,0,0,1,10.77,4a6.49,6.49,0,0,0-1.28-2.3A6.14,6.14,0,0,1,12.1,3.51ZM5.51,1.74A6.34,6.34,0,0,0,4.23,4,8,8,0,0,1,2.9,3.51,6.14,6.14,0,0,1,5.51,1.74ZM4,4.72A11,11,0,0,0,3.7,7.15H1.42a6.16,6.16,0,0,1,1-3.08A8,8,0,0,0,4,4.72ZM1.42,7.85H3.7A11,11,0,0,0,4,10.28a8,8,0,0,0-1.57.65A6.06,6.06,0,0,1,1.42,7.85ZM2.9,11.49A8,8,0,0,1,4.23,11a6.64,6.64,0,0,0,1.28,2.3A6,6,0,0,1,2.9,11.49Zm6.59,1.77A6.64,6.64,0,0,0,10.77,11a8,8,0,0,1,1.33.53A6.11,6.11,0,0,1,9.49,13.26Zm1.48-3a11.59,11.59,0,0,0,.33-2.43h2.28a5.92,5.92,0,0,1-1.05,3.07A8.48,8.48,0,0,0,11,10.28Z"/></svg>