<svg xmlns="http://www.w3.org/2000/svg" viewBox="0 0 270 50"><defs><style>.a,.b{fill:#fff;}.b{fill-rule:evenodd;}</style></defs><title>logo</title><rect class="a" x="186.21" y="24.85" width="29.09" height="0.89" transform="translate(226.05 -175.46) rotate(90)"/><path class="a" d="M211.48,24.22a26.43,26.43,0,0,0-.15-3.63c.19,0,.49,0,.74,0,.64,0,1.27,0,2.05,0,2.32,0,2.86,1.23,2.86,2.18a2.2,2.2,0,0,1-1.23,2,2.59,2.59,0,0,1,2.08,2.49c0,1.53-1.18,2.89-3.52,2.89-.9,0-1.69-.08-1.94-.09s-.76,0-1,0c.06-.54.11-2,.11-3.64Zm1.56.18s0,.07.05.08c.22,0,1.08,0,1.25,0a.9.9,0,0,0,.57-.13,1.59,1.59,0,0,0,.63-1.29c0-.94-.58-1.59-1.77-1.59a2.47,2.47,0,0,0-.7,0,.08.08,0,0,0,0,.07ZM215.5,26a2.27,2.27,0,0,0-1.5-.51h-.93a.07.07,0,0,0,0,.05v.89a22.1,22.1,0,0,0,.05,2.46,2.08,2.08,0,0,0,1.27.27,1.68,1.68,0,0,0,1.81-1.74A1.66,1.66,0,0,0,215.5,26Z"/><path class="a" d="M221.31,26.52a1.28,1.28,0,0,0-.17-.68c-.53-1-1.64-2.87-1.94-3.27a15.62,15.62,0,0,0-1.46-2c.24,0,.48,0,.88,0a10.4,10.4,0,0,0,1.26-.05A13.46,13.46,0,0,0,220.6,22c.2.34,1.45,2.62,1.7,3,.6-1,1.53-2.78,1.83-3.35a8.21,8.21,0,0,0,.47-1,4.79,4.79,0,0,0,.57,0c.56,0,1,0,1.09,0A13.28,13.28,0,0,0,225,22.39,35.15,35.15,0,0,0,223,26a1.5,1.5,0,0,0-.12.6c0,1.5.05,2.91.11,3.48l-.77,0a7.76,7.76,0,0,0-1,.05A34.86,34.86,0,0,0,221.31,26.52Z"/><path class="a" d="M229.54,25.39a4.82,4.82,0,0,1,5.06-5,4.61,4.61,0,0,1,4.89,4.68,4.87,4.87,0,0,1-5.05,5.16A4.69,4.69,0,0,1,229.54,25.39Zm8.17.08c0-2.23-1.29-4.09-3.42-4.09-1.77,0-3,1.34-3,3.64s1.27,4.23,3.44,4.23C236,29.25,237.71,28.43,237.71,25.47Z"/><path class="a" d="M241.34,24.22a18.71,18.71,0,0,0-.19-3.63c.29,0,.52,0,.78,0s1.36-.05,1.88-.05a4.81,4.81,0,0,1,2.34.45,2.39,2.39,0,0,1,1.19,2.09,3,3,0,0,1-1.54,2.6,34.37,34.37,0,0,0,2.44,3.19,5.57,5.57,0,0,0,1.2,1.11,4.23,4.23,0,0,1-1.11.1,1.89,1.89,0,0,1-1.57-.66,34.62,34.62,0,0,1-2.28-3.12.15.15,0,0,0-.15-.08l-1.41,0s0,0,0,.08v.34A26.32,26.32,0,0,0,243,30l-.77,0a8,8,0,0,0-1.06.05c.06-.54.15-2,.15-3.65Zm1.53.85c0,.1,0,.1,0,.14a6.74,6.74,0,0,0,1.36.11,1.22,1.22,0,0,0,.69-.14,2,2,0,0,0,.82-1.68,1.9,1.9,0,0,0-2.08-2,3.85,3.85,0,0,0-.79,0s0,0,0,.09Z"/><path class="a" d="M250.47,24.22a26.25,26.25,0,0,0-.14-3.63,4.19,4.19,0,0,0,.75,0,6.1,6.1,0,0,0,1.08-.05c0,.49-.11,1.85-.11,3.65v2.2a29.37,29.37,0,0,0,.13,3.62l-.77,0a7.06,7.06,0,0,0-1,.05c.06-.5.11-2,.11-3.65Z"/><path class="a" d="M254.62,30a7.43,7.43,0,0,0-1,.05c.23-.29.8-1,1.59-2.16l1.79-2.7-1.67-2.69a9.47,9.47,0,0,0-1.45-1.93c.34,0,.74,0,1.15,0a5.61,5.61,0,0,0,1-.05A37.73,37.73,0,0,0,258,24c.36-.52.93-1.44,1.07-1.67a10.28,10.28,0,0,0,.93-1.75,4.18,4.18,0,0,0,.62,0c.49,0,1,0,1.12-.05a16.06,16.06,0,0,0-1.34,1.73l-1.82,2.6c.37.67,1,1.67,1.53,2.5A18.17,18.17,0,0,0,262,30c-.21,0-.68,0-1,0a12.81,12.81,0,0,0-1.31.05c-.08-.21-.64-1.29-.78-1.56l-1.34-2.38-1.46,2.42c-.38.64-.69,1.32-.79,1.49Z"/><path class="b" d="M65.29,24.45c0-4.87-2.26-8.5-3.81-8.5-1.35,0-2.25,1.14-3.45,3.18C57,21,56,23,54.16,22.55s-3-3.29-4-5.7c-2-4.71-2.86-6.52-4.39-6.52s-2.8,1.73-4.79,6.23c-1.22,2.75-2.42,5.72-4,5.72s-2.47-1.44-4-3.53c-1-1.32-1.84-2.17-2.77-2.18s-2,.9-3,2.43c-1.83,2.9-2.76,4.83-4.43,4.83S20.29,22.16,19,19c-.44-1.07-1.08-2.82-1.74-4.12s-1.33-2.17-2.31-2.17c-1.66,0-2.68,2.59-3.75,5.64-.65,1.87-1.13,4.79-3.24,4.79s-2.69-2.49-4.28-2.49S1,22.85,1,25.78c0,4.45,1.58,5.59,2.7,5.59s1.76-1,2.56-1.89,1.22-1.4,2-1.4,1.51.55,2.1,2.56c.36,1.25,1.08,3.72,1.65,5.29.82,2.27,2.07,3.16,3,3.15s1.74-.79,2.77-3.07c.93-2.09,1.54-3.84,2.13-5.18s1.51-2.68,2.85-2.68,2.41,1,3.69,3.56c1.75,3.5,2.86,4.27,4,4.27,1.34,0,2.19-1.82,3.59-5.2,1.09-2.65,1.71-4.45,3.09-4.31,1.66.17,2.6,4,3.24,6.25.88,3.06,2.76,10.7,5.6,10.7,2.52,0,4.17-7.77,5.65-13.32.84-3.12,2.34-3.58,3-3.58,1.6,0,2.33,2.11,3.44,4.32.95,1.87,1.57,2.7,2.84,2.7,1.94,0,4.39-3.46,4.39-9.09"/><path class="b" d="M32.19,12.56a2.09,2.09,0,1,1-2.08-2.08,2.08,2.08,0,0,1,2.08,2.08"/><path class="b" d="M49.22,3.64C49.22,5.81,47.37,8,45.75,8s-3.47-2.21-3.47-4.34a3.47,3.47,0,1,1,6.94,0"/><path class="a" d="M153.15,13.86l1.25,0c.46,0,1,0,1.47,0,.65,0,.92-.11.92-.42s-.63-.6-.88-.6a2.67,2.67,0,0,0-.63.2l0,0-.11,0-.09,0a3.28,3.28,0,0,1-.65.07h-.06a.17.17,0,0,1-.13-.05.16.16,0,0,1-.06-.13v-.57c0-.84.07-1.63.11-2.16s-.59-.88-1-.88a.55.55,0,0,0-.43.17.84.84,0,0,0-.13.7s0,1.85,0,2.75a.18.18,0,0,1-.18.19l-.8,0h-.92l-.13,0h-.12l-.28,0a.2.2,0,0,0-.21.2.84.84,0,0,0,.77.64l.47-.06.11,0h0a.25.25,0,0,1,.12,0,.17.17,0,0,1,.07.13,2.41,2.41,0,0,1,0,.31c0,7.92-1.25,10.38-2.42,12.06a.31.31,0,0,0-.1.23.18.18,0,0,0,.18.2h0a4.24,4.24,0,0,0,1.32-1.27c1.63-2.56,2-5.07,2.2-8.3a.21.21,0,0,1,.07-.14.23.23,0,0,1,.14,0h.09l.51,0,.46,0a.17.17,0,0,1,.15.05.17.17,0,0,1,.06.14,32,32,0,0,1-.64,6.85c-.26,1-.57,1.15-.88,1.15a2.75,2.75,0,0,1-.42-.06l-.39-.07a.19.19,0,0,0-.22.21c0,.19.59,1.49,1.65,1.49.48,0,.9-.35,1.29-1.07s.74-2.16.94-6c0-.21,0-.48,0-.76v-.29a8.8,8.8,0,0,1,.05-1.05,2.93,2.93,0,0,1,.11-.44.75.75,0,0,0-.11-.66,1,1,0,0,0-.7-.42.83.83,0,0,0-.45.1.72.72,0,0,1-.41.07h-1.11a.2.2,0,0,1-.14-.06.24.24,0,0,1-.05-.14V16c0-.59.08-1.57.08-1.85v-.07a.17.17,0,0,1,.05-.15.16.16,0,0,1,.13-.06"/><path class="a" d="M165.33,20.68c0-.33-.66-.73-.91-.73a2.09,2.09,0,0,0-.54.17l-.08,0-.16.06a4.11,4.11,0,0,1-1,.1l-1.05,0a.26.26,0,0,1-.15-.07.2.2,0,0,1,0-.15l0-.51a17,17,0,0,0,.14-2,1.23,1.23,0,0,0,0-.2.26.26,0,0,1,0-.15.21.21,0,0,1,.13-.07l.63,0h.84l.71,0h.16c.5,0,.57-.07.57-.29s-.6-.73-.9-.73a2.73,2.73,0,0,0-.59.19l-.16.06a5.34,5.34,0,0,1-1.22.12l-1.7,0a.2.2,0,0,1-.17-.09.17.17,0,0,1,0-.18l0-.05a2.77,2.77,0,0,1,.18-.28,1.31,1.31,0,0,0,.3-.82c0-.72-1.11-.74-1.11-.74-.17,0-.21,0-.23.58a12.82,12.82,0,0,1-1.38,3.42l-.12.21-.08.13c-.26.44-.26.47-.27.52a.18.18,0,0,0,.18.16,7,7,0,0,0,1.92-2,.21.21,0,0,1,.18-.09,2.56,2.56,0,0,0,.37,0,.21.21,0,0,1,.15,0,.33.33,0,0,1,.07.13,2.33,2.33,0,0,1,0,.3,17.6,17.6,0,0,1-.18,2.47.17.17,0,0,1-.17.16l-1.67.07h-.82l-.27,0h-.07l-.29,0a.2.2,0,0,0-.2.21.85.85,0,0,0,.76.64l.75-.06.79-.06.83,0h0a.17.17,0,0,1,.14.07.18.18,0,0,1,.05.16c-.35,2.06-1.14,3.45-3.44,5.13-.11.06-.16.13-.16.21a.19.19,0,0,0,.17.2h0a7.51,7.51,0,0,0,1.57-.81,7,7,0,0,0,3.27-4.81.18.18,0,0,1,.18-.15l1.55-.07c.51,0,1,0,1.56,0s.84,0,.84-.31"/><path class="a" d="M166.23,26a11.52,11.52,0,0,1-4.2-3.4c-.07-.11-.18-.19-.25-.17s-.11.12-.09.26a5.4,5.4,0,0,0,.81,1.8c.8,1.27,1.53,2.06,2.14,2.22a2.42,2.42,0,0,0,.47.05c.62,0,1.31-.3,1.37-.52v0c0-.08,0-.12-.25-.22"/><path class="a" d="M159.23,13.4l.65,0,.64,0,2.42-.08h1.48c.66,0,.92-.12.92-.42s-.82-.63-1-.63a3,3,0,0,0-.66.22,3.16,3.16,0,0,1-1.16.16l-2.63.05h-.25a.17.17,0,0,1-.16-.09.19.19,0,0,1,0-.19c.1-.19.22-.4.33-.59l.05-.13a2.73,2.73,0,0,0,.51-1.28,1.12,1.12,0,0,0-1.25-1l-.2,0a.2.2,0,0,0-.18.22s0,.13,0,.21l0,.16v.06a20,20,0,0,1-2.06,5.46l0,.06a.3.3,0,0,0-.06.13.17.17,0,0,0,.17.16h0a5.37,5.37,0,0,0,2.07-2.39.19.19,0,0,1,.21-.1l.17,0"/><path class="a" d="M114.36,17.37l-.74-.67a.24.24,0,0,1,0-.33c.45-.55,1.81-2.8,1.81-2.8a10.75,10.75,0,0,0,.59-1.06l.06-.12a2.08,2.08,0,0,1,.22-.41.94.94,0,0,0,0-.89,1,1,0,0,0-1.17-.43l-.24.08-.17.08a2.19,2.19,0,0,1-.78.19l-1.51,0h-.8a.19.19,0,0,1-.19-.16.83.83,0,0,0-1-.63c-.24.06-.5.33-.5.92l.08,4v.49c0,1.77,0,4.43,0,6.09,0,.24,0,.78-.06,1.44v.19c-.07,1.19-.13,2.39-.13,2.82a.93.93,0,0,0,.8.77,1,1,0,0,0,.88-.91c0-.13,0-.73,0-.85,0-2.7,0-4.76,0-8.73V13.66s0,0,0-.06a.66.66,0,0,0,0-.15l0-1.6a.16.16,0,0,1,.06-.13.14.14,0,0,1,.14-.05h0l.74,0,.83,0,1.2,0a.2.2,0,0,1,.16.07.25.25,0,0,1,0,.17A25.17,25.17,0,0,1,113,16.33l0,.11a.3.3,0,0,0,0,.16c0,.09,0,.14.18.28a6.75,6.75,0,0,1,2,4.23,2.7,2.7,0,0,1-.38,1.51,1.13,1.13,0,0,1-1.07.52l-.54-.05-.49-.05a.2.2,0,0,0-.14.05.18.18,0,0,0,0,.17,2.67,2.67,0,0,0,1.74,1.15,3,3,0,0,0,2.46-3.11c0-1.91-1.44-3.22-2.21-3.93"/><path class="a" d="M108.26,16.4c.58,0,.83-.09.83-.32s-.68-.72-1-.72a2.24,2.24,0,0,0-.57.19l-.11,0-.14.05a.77.77,0,0,1-.25.07.17.17,0,0,1-.19-.09.18.18,0,0,1,0-.21,20.75,20.75,0,0,0,1.86-3.1l.26-.51a.9.9,0,0,0,.13-.37.87.87,0,0,0-.25-.71,1.33,1.33,0,0,0-.86-.39.22.22,0,0,0-.23.24.43.43,0,0,1,0,0l0,.12a.51.51,0,0,1,0,.1,8.34,8.34,0,0,1-.89,2.1.19.19,0,0,1-.16.09.17.17,0,0,1-.16-.08,1.15,1.15,0,0,0-.77-.43,2.33,2.33,0,0,0-.4.12.17.17,0,0,1-.17,0,.16.16,0,0,1-.09-.15v-2a1,1,0,0,0-.9-.9.51.51,0,0,0-.39.15.94.94,0,0,0-.17.73v2.17a.19.19,0,0,1-.18.19l-.56,0h-1.09l-.15,0-.17,0c-.19,0-.26.1-.26.19a.84.84,0,0,0,.77.6l.56,0,.19,0,.52,0h.17a.21.21,0,0,1,.19.19V15.6a.19.19,0,0,1-.17.19l-1.67.05H101l-.18,0h-.11l-.36,0a.2.2,0,0,0-.19.2c0,.13.33.68.76.68.13,0,.46,0,.91-.08s.85-.08,1-.08l1.41,0a.17.17,0,0,1,.17.1.18.18,0,0,1,0,.2,14.8,14.8,0,0,1-1.64,1.87l-.51.46a15.42,15.42,0,0,1-1.44,1.38l-.16.14-.82.73,0,0a.16.16,0,0,0-.07.13.18.18,0,0,0,.19.19,7.43,7.43,0,0,0,1.93-1.39.28.28,0,0,1,.13,0h.07a.21.21,0,0,1,.12.17c0,.6,0,1.22,0,1.77s0,1.9-.09,3c0,.48.28.93.6.93a.93.93,0,0,0,.87-.66.2.2,0,0,1,.18-.17l2.58-.09a.17.17,0,0,1,.18.14.75.75,0,0,0,.26.36.58.58,0,0,0,.45.21.78.78,0,0,0,.8-.61c0-.09,0-.47,0-1.05v-.15c0-.24,0-.45,0-.55,0-1.77,0-2.75.07-3.23,0-.15,0-.25,0-.32s0-.33.05-.45a.45.45,0,0,0,0-.13.73.73,0,0,0-.19-.58,1.13,1.13,0,0,0-1.25-.19,1.51,1.51,0,0,1-.57.1l-1.87,0a.18.18,0,0,1-.17-.12.19.19,0,0,1,.05-.21,13.19,13.19,0,0,0,1.85-2,.19.19,0,0,1,.12-.07l.29,0Zm-2.13,5.33a.82.82,0,0,0-.56-.31,2.07,2.07,0,0,0-.44.08l-.11,0-.21,0a3.38,3.38,0,0,1-.64.05h-.35a.19.19,0,0,1-.14-.05.2.2,0,0,1-.06-.13c0-.68,0-1.27,0-1.71a.19.19,0,0,1,.19-.18l.5,0,.23,0,.54,0,1.32,0a.19.19,0,0,1,.14.05.24.24,0,0,1,0,.14c0,.52,0,1.25,0,2v.53c0,.85,0,1.67,0,2.15a.19.19,0,0,1-.23.19,1.43,1.43,0,0,0-.6,0l-.39,0-.36,0-.61,0-.55,0h0a.18.18,0,0,1-.13-.06.16.16,0,0,1-.06-.13l0-1.93a.19.19,0,0,1,.19-.19l1.84-.1a.63.63,0,0,0,.51-.18.36.36,0,0,0,0-.32m-.66-6.4a.19.19,0,0,1-.16.08h0a.17.17,0,0,1-.13-.18V13.7a.18.18,0,0,1,.17-.19h.5a2.58,2.58,0,0,0,.46,0,.17.17,0,0,1,.19.07.2.2,0,0,1,0,.21c-.31.52-.64,1-1,1.59"/><path class="a" d="M124.63,24.82l.06,0a22.66,22.66,0,0,0,6-8.09,4.78,4.78,0,0,1,.32-.55,1.55,1.55,0,0,0,.28-.64.84.84,0,0,0-.66-.83,1.09,1.09,0,0,0-.26,0,2.34,2.34,0,0,0-.8.18,1.83,1.83,0,0,1-.72.09l-3,.05h-.63a.18.18,0,0,0-.2.19.86.86,0,0,0,.76.63l.77-.06.77,0,1.89,0h0a.2.2,0,0,1,.15.07.18.18,0,0,1,0,.17,22.56,22.56,0,0,1-4.33,7.87l-.09.1c-.73.77-.73.86-.73.91a.18.18,0,0,0,.17.2v0c.07,0,.1,0,.22-.11"/><path class="a" d="M141.77,23.79a17.74,17.74,0,0,1-6-6.72.14.14,0,0,1,0-.14c0-.05.05-.08.1-.11A18.59,18.59,0,0,0,139,14.89c.47-.36.73-.64.77-.86a1.1,1.1,0,0,0-.23-1,1,1,0,0,0-.62-.4h-.09c-.09,0-.12.09-.22.27l-.14.24-.09.15a.31.31,0,0,1-.06.09l-.05.07a16.87,16.87,0,0,1-2.6,2.87.18.18,0,0,1-.16.05.26.26,0,0,1-.14-.11c-.15-.33-.36-.82-.48-1.19-.05-.15-.14-.33-.29-.33a.2.2,0,0,0-.14.06.35.35,0,0,0-.06.23,14.74,14.74,0,0,0,3.07,7.13l.14.19c.49.67,1.52,2.07,2.31,2.25a2.49,2.49,0,0,0,2-.47l0-.08c0-.09-.05-.13-.22-.25"/><path class="a" d="M183.05,14.45a.52.52,0,0,0,.16-.12A1.94,1.94,0,0,0,183.5,13a.17.17,0,0,1,.07-.15.17.17,0,0,1,.15,0l.14,0h.28c.47,0,1.16-.05,1.25-.05l3.28-.1a.24.24,0,0,1,.18.09.2.2,0,0,1,0,.18l-.06.19a3.8,3.8,0,0,0-.19.6v0a.24.24,0,0,0,.23.17,10.07,10.07,0,0,0,1.79-.75c.21-.14.36-.25.34-.47a.74.74,0,0,0-.24-.44,2.34,2.34,0,0,0-1.37-.39,1.75,1.75,0,0,0-.48.13.85.85,0,0,1-.22.07,2.69,2.69,0,0,1-.62.06l-.85,0A.2.2,0,0,1,187,12v-.2c0-.84.09-1.48.11-1.72v0c0-.41-.59-.88-1-.88a.5.5,0,0,0-.38.16,1,1,0,0,0-.19.73c0,.1,0,1.36.05,2a.18.18,0,0,1-.18.19l-1.4.06h-.46a.17.17,0,0,1-.17-.13c-.06-.17-.13-.21-.23-.21s-.15,0-.19.26a1.89,1.89,0,0,1-.45,1.08,2.75,2.75,0,0,0-.33.48s0,.12,0,.15a.49.49,0,0,0,.1.43.68.68,0,0,0,.5.24.91.91,0,0,0,.29-.07m-.17.4a.28.28,0,0,0-.09.18,1.35,1.35,0,0,0,0,.24v.05c0,.06,0,.18,0,.23,0,.43,0,1.88,0,2.24,0,.63,0,2.7,0,3.94,0,2.29-.05,3.74-.05,4.31a.72.72,0,0,0,.68.68.82.82,0,0,0,.81-.72.19.19,0,0,1,.18-.16l3.8-.12a.19.19,0,0,1,.19.15.7.7,0,0,0,.21.44.56.56,0,0,0,.45.17.87.87,0,0,0,.8-1c0-.53.09-3,.09-3.08a4.43,4.43,0,0,1,.11-.6.62.62,0,0,0-.1-.56.88.88,0,0,0-.76-.33,3.63,3.63,0,0,0-.77.22,2.28,2.28,0,0,1-.65.06l-2.42.08c-.3,0-.64,0-.92,0a.19.19,0,0,1-.18-.19l0-1.56a.19.19,0,0,1,.19-.19l3.32-.11a.19.19,0,0,1,.19.14.61.61,0,0,0,.16.31.68.68,0,0,0,.49.2.87.87,0,0,0,.76-1c0-.19,0-2.23,0-2.4a3.05,3.05,0,0,1,.11-.75l0-.1a.74.74,0,0,0-.15-.65.88.88,0,0,0-.86-.26l-.35.1L188,15a1.29,1.29,0,0,1-.53.07l-2.17.05H184.2a.13.13,0,0,1-.08,0,3.68,3.68,0,0,0-1-.24.54.54,0,0,0-.24,0M184.4,22a.16.16,0,0,1,.16,0h.18l.72,0h.11l.53,0,2.29-.06a.19.19,0,0,1,.14.05.15.15,0,0,1,.05.13c0,.18,0,.45,0,1l-.06,1.68a.19.19,0,0,1-.17.18c-.43,0-1.13.1-1.36.1l-2.41.07h0a.19.19,0,0,1-.13-.05.2.2,0,0,1-.06-.14l0-2.77a.14.14,0,0,1,.07-.14m0-6.06a.19.19,0,0,1,.19-.18h0l.56,0h.17l.62,0,1.93-.05a.25.25,0,0,1,.14.06.2.2,0,0,1,.06.13c0,.37,0,.79,0,1.31l0,1.13a.22.22,0,0,1-.06.14.24.24,0,0,1-.14.05h-.1l-.23,0c-.36,0-1.22.11-1.43.11l-1.52.05h0a.2.2,0,0,1-.14-.06.19.19,0,0,1,0-.13c0-.69,0-1.52,0-2.5"/><path class="a" d="M176.36,26.37c.86-.16,1.88-.93,3.61-2.1a.25.25,0,0,1,.17,0,.2.2,0,0,1,.12.12l.1.27.08.23.09.24a.81.81,0,0,0,.72.38c.16,0,.49-.16.49-.67,0-1.22-1.85-2.5-2.1-2.6s-.41.11-.24.35a5.49,5.49,0,0,1,.52,1,.19.19,0,0,1,0,.15.13.13,0,0,1-.1.1l-2,.75a.2.2,0,0,1-.17,0,.19.19,0,0,1-.08-.16l0-3.4a.19.19,0,0,1,.18-.19l2.23-.09a.17.17,0,0,1,.18.12,1,1,0,0,0,.11.17.74.74,0,0,0,.52.23.84.84,0,0,0,.78-.79c0-.2,0-.68,0-1.23v-.36c0-.82,0-1.53,0-1.72a7.18,7.18,0,0,1,.08-.87l0-.09a.69.69,0,0,0-.12-.6.81.81,0,0,0-.64-.26,1.33,1.33,0,0,0-.6.15c-.08.05-.11.05-.39.07h-.07a.18.18,0,0,1-.2-.17v-.12c0-.11,0-.37,0-.64v-.09c0-.26,0-.52,0-.63,0-.45-1.12-.66-1.52-.68a.19.19,0,0,1-.16-.11.19.19,0,0,1,0-.19c.3-.44.59-.9.85-1.36a.19.19,0,0,1,.14-.09.18.18,0,0,1,.17.07,5,5,0,0,1,.83,1.45v0c.1.25.21.49.34.75a.83.83,0,0,0,.72.52.56.56,0,0,0,.47-.41.69.69,0,0,0,0-.27c0-.54-.84-1.67-2.21-2.57a.18.18,0,0,1-.06-.24.91.91,0,0,0,.09-.3.93.93,0,0,0-.24-.73,1.36,1.36,0,0,0-.87-.37c-.17,0-.22.17-.26.31a6.83,6.83,0,0,1-.24,1.1,16.79,16.79,0,0,1-3.13,5.37.41.41,0,0,0,0,.1.2.2,0,0,0,.17.2h0l0,0a10.72,10.72,0,0,0,.84-.77.18.18,0,0,1,.19-.05.19.19,0,0,1,.12.15.69.69,0,0,1,0,.16c.06,1,.05,2.33.05,9a.18.18,0,0,1-.13.18.65.65,0,0,0-.48.65.69.69,0,0,0,.78.65m3.76-6.63a.19.19,0,0,1-.18.19h-.24c-.48.05-1,.1-1.21.1l-.74,0h0a.21.21,0,0,1-.13-.05.24.24,0,0,1-.05-.14l0-1.18a.19.19,0,0,1,.18-.19l1.87-.07.36,0a.24.24,0,0,1,.14,0,.2.2,0,0,1,.06.14Zm-.91-3.54.76,0a.15.15,0,0,1,.14,0,.17.17,0,0,1,.06.14v1.15a.16.16,0,0,1-.09.15c-.06,0-1.41.12-1.41.12a2.58,2.58,0,0,1-.32,0h-.61a.19.19,0,0,1-.19-.18c0-.47,0-1,0-1.2a.23.23,0,0,1,.07-.14.23.23,0,0,1,.16,0l.15,0,.67,0,.61,0m-1.08-2.44,0,.05a3.55,3.55,0,0,1,.09,1v.55a.2.2,0,0,1-.18.2h-.74a.44.44,0,0,1-.15-.05,1.76,1.76,0,0,0-.6-.3.21.21,0,0,1-.13-.13.2.2,0,0,1,0-.18,17.08,17.08,0,0,0,1.18-1.46.23.23,0,0,1,.18-.08.24.24,0,0,1,.15.13,1.92,1.92,0,0,0,.13.28"/><path class="a" d="M132.72,9.49a.51.51,0,0,0-.42.16.9.9,0,0,0-.14.73c0,.18.05,1.69.06,6.44,0,2.34-.06,7.29-.12,7.72S132,25,132,25l0,0a.46.46,0,0,1-.2,0l-.37,0-.2,0-.28,0a.22.22,0,0,0-.15.06.28.28,0,0,0-.05.19c.05.15.86,1.41,1.55,1.48a1.26,1.26,0,0,0,1-.45,2.45,2.45,0,0,0,.46-1.61c0-.33,0-1.05,0-1.93l0-1.64c0-1.61,0-3.27,0-3.87v-.1c0-2.84.06-5,.09-6l0-.18a.57.57,0,0,0,0-.13l0-.44a1.14,1.14,0,0,0-1-.9"/><path class="a" d="M84,19.62l2.25-.09a.17.17,0,0,1,.17.09l.08.11a.79.79,0,0,0,.6.25.94.94,0,0,0,.84-1V16.19a2.07,2.07,0,0,1,.07-.67.88.88,0,0,0-.13-.73,1,1,0,0,0-.78-.38,2.15,2.15,0,0,0-.6.13l-.19.06a4.32,4.32,0,0,1-.78.07l-4.65.11a12.05,12.05,0,0,1-1.37,0,1.38,1.38,0,0,1-.5-.18,1.17,1.17,0,0,0-.63-.18.39.39,0,0,0-.27.17.46.46,0,0,0-.08.34,3.43,3.43,0,0,1,0,.39,14,14,0,0,1,0,1.77v.37c0,.16,0,.61,0,1v.09c0,.39,0,.84,0,1a.81.81,0,0,0,.71.72.94.94,0,0,0,.74-.45.19.19,0,0,1,.16-.11l2.49-.08a.17.17,0,0,1,.19.19,36.32,36.32,0,0,1-.07,5.08c-.08.53-.2.59-.65.59l-.44-.07-.42-.07a.2.2,0,0,0-.21.19c0,.26.9,1.56,1.6,1.63a1.43,1.43,0,0,0,1.15-.6,3.15,3.15,0,0,0,.53-1.91c0-.2,0-.62,0-1.12v-2c0-.41,0-.75,0-.9v-.18c0-.19,0-.48,0-.51v-.14a.16.16,0,0,1,0-.14.2.2,0,0,1,.13-.06M79.71,19h0a.19.19,0,0,1-.19-.18c0-.24,0-.55,0-.88v-.12c0-.58,0-1.16,0-1.38s0-.5,0-.73a.21.21,0,0,1,.07-.13.18.18,0,0,1,.14,0h.52l.71,0,.46,0,4.81-.12a.2.2,0,0,1,.14.06.19.19,0,0,1,.05.13c0,.38,0,1,0,1.52v.64c0,.32,0,.62,0,.85a.2.2,0,0,1-.18.19,4.6,4.6,0,0,0-.65.07l-1.27.06Z"/><path class="a" d="M86,21.43a.19.19,0,0,0-.19.17v.08a4.12,4.12,0,0,0,.45.51l.08.09A6.34,6.34,0,0,1,87.42,24c.06.13.12.25.19.42.17.33.34.68.53,1,.36.69.77.78.93.79h.07a.88.88,0,0,0,.77-.78,2.88,2.88,0,0,0-.9-1.81,7.36,7.36,0,0,0-3-2.19"/><path class="a" d="M89.23,11.66a2.85,2.85,0,0,0-.68.23l-.38.15a14.1,14.1,0,0,1-2.34.18l-1.9,0a.34.34,0,0,1-.14,0,.19.19,0,0,1-.05-.14V10.21a1.14,1.14,0,0,0-1-.9.53.53,0,0,0-.41.16.9.9,0,0,0-.16.72v1.9a.19.19,0,0,1-.18.19l-3.28.11c-1,0-1.58,0-2,0h-.31c-.18,0-.62-.09-.73-.09a.2.2,0,0,0-.19.19,1.08,1.08,0,0,0,.88.76l.25,0,.31,0,.31,0c.42,0,1.53-.09,1.79-.09l8.25-.2h2.18c.73,0,1,0,1-.32,0-.43-1-.91-1.2-.91"/><path class="a" d="M78.82,21.39c-.14,0-.23.1-.3.36A3.33,3.33,0,0,1,78,22.93l-.1.14a9.4,9.4,0,0,1-.73,1l-.29.34c-.24.3-.48.57-.74.85l-.14.15-.32.34-.07.08-.08.08c-.17.14-.14.24-.13.27a.18.18,0,0,0,.17.11h.07a4.77,4.77,0,0,0,1-.58l.06,0a17.56,17.56,0,0,0,1.89-1.48l.22-.19c.76-.64,1.24-1.08,1.3-1.31a.73.73,0,0,0-.13-.6,1.91,1.91,0,0,0-1.17-.66"/><path class="a" d="M82.4,38.62h-.3a.16.16,0,0,1-.12-.06l-2.24-2.88a.15.15,0,0,1,0-.19l.94-1.07a1.46,1.46,0,0,1,.92-.52.72.72,0,0,0,.4-.09.43.43,0,0,0,.17-.62.44.44,0,0,0-.41-.23.88.88,0,0,0-.37.1,2.43,2.43,0,0,0-.42.32l-.14.13c-.2.16-.51.51-.65.64l-1.34,1.5a.3.3,0,0,0,0,.41L81,38.82a.65.65,0,0,0,.58.31h.86a.26.26,0,0,0,.27-.25.29.29,0,0,0-.27-.26"/><path class="a" d="M77.84,33.06H77a.27.27,0,0,0-.27.26.3.3,0,0,0,.27.26h.17a.16.16,0,0,1,.1.05.13.13,0,0,1,0,.1v4.73a.15.15,0,0,1-.14.16h-.07a.26.26,0,0,0-.26.26.29.29,0,0,0,.26.25h.76a.38.38,0,0,0,.39-.37V33.44a.42.42,0,0,0-.38-.38"/><path class="a" d="M90.43,33a.61.61,0,0,0-.26.06,2.9,2.9,0,0,0-.79.71c-.09.12-.23.33-.39.6l-.58,1a.17.17,0,0,1-.13.07.15.15,0,0,1-.13-.07l-1.19-2a.46.46,0,0,0-.42-.26h-1a.26.26,0,0,0-.26.26.3.3,0,0,0,.26.26h.44a.16.16,0,0,1,.13.08l1.45,2.51a.58.58,0,0,1,0,.18v2.12a.15.15,0,0,1-.15.15h-.06a.26.26,0,0,0-.26.26.28.28,0,0,0,.26.25h.77a.43.43,0,0,0,.39-.37V36.32a.35.35,0,0,1,0-.18l1-1.62c.17-.29.48-.64.8-.64a.63.63,0,0,0,.34-.07.51.51,0,0,0,.24-.31.43.43,0,0,0-.07-.32.45.45,0,0,0-.4-.22"/><path class="a" d="M96.74,33.05a3,3,0,1,0,3,3,3,3,0,0,0-3-3m0,5.53a2.31,2.31,0,0,1-2-2.5,2.09,2.09,0,1,1,4.11,0,2.32,2.32,0,0,1-2.06,2.5"/><path class="a" d="M108,33.06H104.3a2,2,0,0,0-1.54.5.51.51,0,0,0-.1.72.48.48,0,0,0,.33.14l.11,0a.38.38,0,0,0,.31-.31c.13-.44.84-.47.86-.47H105a.15.15,0,0,1,.15.15v4.69a.15.15,0,0,1-.15.15H105a.27.27,0,0,0-.26.27.29.29,0,0,0,.26.25h.78a.4.4,0,0,0,.39-.38v-5a.15.15,0,0,1,.15-.15H108a.29.29,0,0,0,.28-.28.28.28,0,0,0-.28-.28"/><path class="a" d="M114.11,33.05a3,3,0,1,0,3,3,3,3,0,0,0-3-3m0,5.61a2.39,2.39,0,0,1-2-2.57,2.09,2.09,0,1,1,4.11,0,2.4,2.4,0,0,1-2.06,2.57"/><path class="a" d="M157.38,38.62h-.13a.14.14,0,0,1-.14-.1L155,33.23a.28.28,0,0,0-.26-.23.3.3,0,0,0-.27.2l-2.15,5.32a.13.13,0,0,1-.13.1H152a.26.26,0,0,0-.26.26.28.28,0,0,0,.26.25h.4a.36.36,0,0,0,.32-.28l.64-1.64a.24.24,0,0,1,.21-.14h1.72a.26.26,0,0,1,.22.14l.58,1.41a.72.72,0,0,0,.67.51h.59a.26.26,0,0,0,.26-.25.29.29,0,0,0-.26-.26m-2.21-2.16a.17.17,0,0,1-.13.07h-1.15a.14.14,0,0,1-.12-.07.14.14,0,0,1,0-.14l.58-1.43a.14.14,0,0,1,.14-.08.13.13,0,0,1,.13.08l.58,1.43a.22.22,0,0,1,0,.14"/><path class="a" d="M131.28,38.62h-.13a.15.15,0,0,1-.14-.1l-2.15-5.29a.28.28,0,0,0-.26-.23.3.3,0,0,0-.27.2l-2.15,5.32a.14.14,0,0,1-.13.1h-.12a.26.26,0,0,0-.26.26.29.29,0,0,0,.26.25h.4a.37.37,0,0,0,.33-.28l.63-1.64a.25.25,0,0,1,.22-.14h1.72a.23.23,0,0,1,.21.14l.59,1.41a.71.71,0,0,0,.66.51h.59a.25.25,0,0,0,.26-.25.28.28,0,0,0-.26-.26m-2.21-2.16a.17.17,0,0,1-.12.07H127.8a.16.16,0,0,1-.13-.07.14.14,0,0,1,0-.14l.58-1.43a.12.12,0,0,1,.13-.08.15.15,0,0,1,.14.08l.57,1.43a.14.14,0,0,1,0,.14"/><path class="a" d="M138.38,38.86a3,3,0,1,0-1.49.25h.2a1.52,1.52,0,0,1,.9.48,1.63,1.63,0,0,0,1.1.5h0a1.49,1.49,0,0,0,1-.26.31.31,0,0,0,.11-.2.19.19,0,0,0-.16-.19h-.46a3.86,3.86,0,0,1-.47,0,1.92,1.92,0,0,1-.71-.29s-.08-.09-.07-.14a.2.2,0,0,1,.09-.13m-1.23-5.26a2.3,2.3,0,0,1,2,2.49,2.09,2.09,0,1,1-4.11,0,2.3,2.3,0,0,1,2.06-2.49"/><path class="a" d="M148.9,33.06h-.78a.37.37,0,0,0-.39.37l0,3.23c0,1.16-.6,1.91-1.53,1.91s-1.52-.76-1.52-1.93V33.44a.41.41,0,0,0-.38-.37h-.77a.27.27,0,0,0-.27.26.3.3,0,0,0,.27.26h0a.15.15,0,0,1,.15.15v2.93a2.34,2.34,0,0,0,2.47,2.47,2.36,2.36,0,0,0,2.48-2.47V33.73a.15.15,0,0,1,.14-.15h.06a.26.26,0,0,0,.27-.26.29.29,0,0,0-.27-.26"/><path class="a" d="M180,33.06h-.77a.38.38,0,0,0-.4.37v3.23c0,1.16-.6,1.91-1.52,1.91s-1.53-.76-1.53-1.93V33.44a.42.42,0,0,0-.39-.37h-.76a.27.27,0,0,0-.27.26.3.3,0,0,0,.27.26h0a.15.15,0,0,1,.15.15v2.93a2.34,2.34,0,0,0,2.47,2.47,2.36,2.36,0,0,0,2.48-2.47V33.73a.15.15,0,0,1,.15-.15H180a.27.27,0,0,0,.27-.26.29.29,0,0,0-.27-.26"/><path class="a" d="M170.75,33.58h.06a.26.26,0,0,0,.27-.26.29.29,0,0,0-.27-.26h-1.36a.27.27,0,0,0-.27.26.3.3,0,0,0,.27.26h.05a.14.14,0,0,1,.11.05.14.14,0,0,1,0,.1v4.73a.16.16,0,0,1-.16.16h-.05a.27.27,0,0,0-.27.26.29.29,0,0,0,.27.25h1.36a.26.26,0,0,0,.27-.25.29.29,0,0,0-.27-.26h-.06a.15.15,0,0,1-.1-.06.12.12,0,0,1-.05-.1V33.73a.15.15,0,0,1,.15-.15"/><path class="a" d="M190.13,33.21a.55.55,0,0,0-.65-.18,2.34,2.34,0,0,0-1.22,1l-1.57,2.23a.17.17,0,0,1-.12.07.14.14,0,0,1-.13-.07l-1.93-3c-.12-.2-.22-.28-.39-.28h-.48a.26.26,0,0,0-.26.26.29.29,0,0,0,.26.26h.14a.16.16,0,0,1,.11.05.13.13,0,0,1,0,.1v4.73a.16.16,0,0,1-.15.16h-.12a.26.26,0,0,0-.26.26.28.28,0,0,0,.26.25h.42a.4.4,0,0,0,.4-.38V35.64a.15.15,0,0,1,.13-.14c.09,0,.12,0,.14.06L186,37.47a.42.42,0,0,0,.46.23.46.46,0,0,0,.23-.18l1.29-2a.17.17,0,0,1,.12-.07.16.16,0,0,1,.16.15v3.12a.42.42,0,0,0,.39.37h.77a.27.27,0,0,0,.27-.25.29.29,0,0,0-.27-.26h-.06a.15.15,0,0,1-.14-.16V34.08c0-.12,0-.2.11-.22a.42.42,0,0,1,.3,0h.14a.48.48,0,0,0,.34-.13.39.39,0,0,0,.13-.29.52.52,0,0,0-.07-.23"/><path class="a" d="M164.12,37.06a2,2,0,0,0,1.55-2,2,2,0,0,0-2-2H161a.27.27,0,0,0-.27.26.31.31,0,0,0,.27.26h.06a.12.12,0,0,1,.1.05.14.14,0,0,1,0,.1v4.73a.15.15,0,0,1-.15.15H161a.28.28,0,0,0-.27.27.29.29,0,0,0,.27.25h.77a.4.4,0,0,0,.39-.38v-5a.15.15,0,0,1,.14-.15h1.37a1.34,1.34,0,0,1,1.14,1.45c0,.83-.5,1.48-1.12,1.48H163a.31.31,0,0,0-.35.29.43.43,0,0,0,.09.22l1.18,1.7a.85.85,0,0,0,.69.37h.77a.25.25,0,0,0,.26-.25.3.3,0,0,0-.26-.27H165a.11.11,0,0,1-.1-.06L164,37.29a.15.15,0,0,1,0-.13.14.14,0,0,1,.11-.1"/></svg>