<svg xmlns="http://www.w3.org/2000/svg" viewBox="0 0 240 300"><defs><style>.a,.c{fill:#fff;}.b{fill:none;}.c{fill-rule:evenodd;}</style></defs><title>logo_top</title><path class="a" d="M17.56,19a7,7,0,0,0,1.9-3.06A15.13,15.13,0,0,0,20,12.07h3.2V20a.84.84,0,0,0,.25.61.86.86,0,0,0,.61.25.81.81,0,0,0,.6-.25.88.88,0,0,0,.25-.61v-7.9H28a.92.92,0,0,0,.65-.26.89.89,0,0,0,.27-.65.85.85,0,0,0-.27-.64.89.89,0,0,0-.63-.26.8.8,0,0,0-.88.68H20l0-3.17a0,0,0,0,0,0,0c1.13-.09,2.44-.22,4-.38,2-.22,2-.24,2-.25a.93.93,0,0,0,.77-1,1.06,1.06,0,0,0-.27-.72,1,1,0,0,0-1.63.2c-1.4.38-3.07.77-5,1.14a.81.81,0,0,0-.89-.3.82.82,0,0,0-.7.9l0,1.75a50.18,50.18,0,0,1-.18,5.38,9.84,9.84,0,0,1-1.29,3.88.45.45,0,0,0-.07.36A.46.46,0,0,0,17,19,.39.39,0,0,0,17.56,19Z"/><path class="a" d="M28.84,20.78a67.06,67.06,0,0,1-7.25.5,16.91,16.91,0,0,1-3.4-.22,3.72,3.72,0,0,1-2.44-1.82V13.46a.81.81,0,0,0-.24-.6.85.85,0,0,0-.61-.24.76.76,0,0,0-.65.34H11.59a.59.59,0,0,0,0,1.18h2.49v5.47L12,21.11a1,1,0,0,0,0,1.47,1,1,0,0,0,1.42,0,.9.9,0,0,0,.29-.67,21.06,21.06,0,0,0,1.41-1.77A3.64,3.64,0,0,0,16.78,22c1.39.74,3.72,1.11,6.93,1.11,1.2,0,2.55-.05,4-.16a.82.82,0,0,0,.88-.89.87.87,0,0,0-.05-.28l.4,0a.45.45,0,0,0,.42-.51h0A.42.42,0,0,0,28.84,20.78Z"/><path class="a" d="M13.69,7.92a.76.76,0,0,0,0,.21,1,1,0,0,0,.3.72,1,1,0,0,0,.7.29,1,1,0,0,0,.69-.27.91.91,0,0,0,.31-.63.43.43,0,0,0,0-.35h0A3.62,3.62,0,0,0,14.26,6a5.94,5.94,0,0,0-1.14-.62.5.5,0,0,0-.36,0,.51.51,0,0,0-.25.3.46.46,0,0,0,.09.45A6.19,6.19,0,0,1,13.69,7.92Z"/><path class="a" d="M46.57,6.22a.45.45,0,0,0-.53.39.42.42,0,0,0,.22.51,4.46,4.46,0,0,1,1.16,1,.64.64,0,0,0,.62.44h.13a.71.71,0,0,0,.5-.28.73.73,0,0,0,.09-.56l-.06-.15C48.48,6.87,47.77,6.43,46.57,6.22Z"/><path class="a" d="M38,10.1a24.13,24.13,0,0,0-2.58,2c-1.27,1.09-1.55,1.18-1.6,1.18h0a.49.49,0,0,0-.52.5.53.53,0,0,0,.24.48,1.63,1.63,0,0,0,.85.24c.66,0,1.64-.59,3-1.81a20.88,20.88,0,0,1,2-1.58,3.83,3.83,0,0,1,2-.71,3.21,3.21,0,0,1,2.15,1,2.71,2.71,0,0,1,.9,2A4.68,4.68,0,0,1,42,17.23a9.62,9.62,0,0,1-4.51,1.69.51.51,0,0,0-.46.57.52.52,0,0,0,.19.39.45.45,0,0,0,.31.11h.07a12.49,12.49,0,0,0,4.9-1.35A6.46,6.46,0,0,0,45.89,15a4.39,4.39,0,0,0,.23-1.38,4.22,4.22,0,0,0-1.49-3.18C42.81,8.74,40.54,8.57,38,10.1Z"/><path class="a" d="M44.77,7.46a.43.43,0,0,0-.37,0,.44.44,0,0,0-.18.31.41.41,0,0,0,.2.5,4.69,4.69,0,0,1,1.16,1,.62.62,0,0,0,.61.47l.16,0a.66.66,0,0,0,.6-.82l-.07-.18C46.72,8.13,46,7.71,44.77,7.46Z"/><path class="a" d="M58,17.65a20.08,20.08,0,0,0-1.5-1.91c-1-1.19-1.26-1.74-1.26-2a1.61,1.61,0,0,1,.53-1l.22-.24c1.69-1.77,2.45-3.11,2.32-4.07a1.89,1.89,0,0,0-.95-1.35A.53.53,0,0,0,56.87,7a.51.51,0,0,0-.32.28.6.6,0,0,0,0,.54,1.28,1.28,0,0,1,.13.45c0,.84-.67,2-2,3.57a3.07,3.07,0,0,0-.91,2,5.54,5.54,0,0,0,1.38,2.78,21.58,21.58,0,0,1,2.55,4.17,1.57,1.57,0,0,0,.14.29.76.76,0,0,0,.66.34.78.78,0,0,0,.57-.24.76.76,0,0,0,.25-.58,1.25,1.25,0,0,0,0-.26A10.2,10.2,0,0,0,58,17.65Z"/><path class="a" d="M75.89,19.2a.81.81,0,0,0-.48.15,23.63,23.63,0,0,1-4.32.38,3.76,3.76,0,0,1-1.64-.37c-.62-.29-.91-.67-.91-1.17a2,2,0,0,1,.89-1.43,23.62,23.62,0,0,1,5.1-2.93c.51-.23.87-.38,1.13-.48l0,0a.81.81,0,0,0,.46-.75.86.86,0,0,0-1.4-.69,27,27,0,0,0-2.53,1.26v-.08c.07-.94.1-1.65.1-2.17,0-2.82-.81-4.41-2.43-4.74a.6.6,0,0,0-.57.22.54.54,0,0,0,.14.78,3.44,3.44,0,0,1,1.08,2.33,31.46,31.46,0,0,1,.28,3.19c0,.59.05,1,.07,1.26a14.72,14.72,0,0,0-2.39,1.85,3.48,3.48,0,0,0-1.22,2.48,2.61,2.61,0,0,0,1.21,2.21,5,5,0,0,0,2.43.81c.53,0,1,.06,1.55.06a15.69,15.69,0,0,0,2.65-.2,5,5,0,0,0,1.08-.28.83.83,0,0,0,.51-.78.85.85,0,0,0-.25-.61A.79.79,0,0,0,75.89,19.2Z"/><path class="a" d="M87,21.15a5,5,0,0,0-2.28-2.53A7.53,7.53,0,0,0,83,17.85a.4.4,0,0,0-.53.3.38.38,0,0,0,.15.45A10.78,10.78,0,0,1,85,21.51a.88.88,0,0,0,.79,1l.25,0a1,1,0,0,0,1-1.08l0-.15Z"/><path class="a" d="M99.86,13.53h0a.52.52,0,0,0-.35.15.49.49,0,0,0-.11.73,7.5,7.5,0,0,1,1.71,4,1.75,1.75,0,0,1-.33,1.11,1.49,1.49,0,0,1-1.21.51,2.11,2.11,0,0,1-.93-.21,1.64,1.64,0,0,1-1-1.59,8.69,8.69,0,0,1,.19-1.25l.4,0a.68.68,0,0,0,.76-.74.71.71,0,0,0-.75-.76h-.06L99,12.35a13.71,13.71,0,0,0,.57-3.25A2.32,2.32,0,0,0,98,6.67a.51.51,0,0,0-.62.19.54.54,0,0,0-.12.4.5.5,0,0,0,.23.36A1.84,1.84,0,0,1,98,9.16,10.91,10.91,0,0,1,97.76,11v0a.69.69,0,0,0-.28-.47l-.12-.07a5.75,5.75,0,0,0-3.82-1,.52.52,0,0,0-.39.16A.55.55,0,0,0,93,10a.49.49,0,0,0,.51.49,3.76,3.76,0,0,1,2.38.87l-1.13,1.44a3.35,3.35,0,0,0-.7,1.83c0,1.05.76,1.76,2.26,2.13a10.4,10.4,0,0,0-.3,1.65,2.71,2.71,0,0,0,1.84,2.55,4.33,4.33,0,0,0,1.81.39,2.93,2.93,0,0,0,2.5-1.08,2.55,2.55,0,0,0,.49-1.56c0-1.34-.83-3-2.46-4.93A.53.53,0,0,0,99.86,13.53ZM97,14.25l-.27,1c-.92-.23-1.4-.54-1.4-.89s.26-.83,1.51-2a3.5,3.5,0,0,0,.89-1.1C97.55,12,97.31,13.05,97,14.25Z"/><path class="a" d="M112.7,12.62a18.21,18.21,0,0,0-2.14,1.65,6,6,0,0,1-1.31,1,.47.47,0,0,0-.36.08.47.47,0,0,0-.15.34.4.4,0,0,0,.22.41,1.24,1.24,0,0,0,.7.23c.55,0,1.38-.5,2.53-1.51a13.33,13.33,0,0,1,1.63-1.32,3.05,3.05,0,0,1,1.66-.59,2.68,2.68,0,0,1,1.78.82,2.11,2.11,0,0,1,.72,1.65,3.86,3.86,0,0,1-2,3.18A8.25,8.25,0,0,1,112.29,20a.47.47,0,0,0-.33.16.45.45,0,0,0-.07.33.41.41,0,0,0,.44.43h0a10.07,10.07,0,0,0,4.42-1.33,5.43,5.43,0,0,0,2.46-2.84h0a4,4,0,0,0,.19-1.16,3.49,3.49,0,0,0-1.29-2.68C116.55,11.47,114.73,11.4,112.7,12.62Z"/><path class="a" d="M134.44,19.2a.86.86,0,0,0-.49.15,23.55,23.55,0,0,1-4.32.38,3.82,3.82,0,0,1-1.64-.37,1.3,1.3,0,0,1-.91-1.17,2,2,0,0,1,.9-1.43,23.13,23.13,0,0,1,5.1-2.93l1.12-.48.05,0h0a.8.8,0,0,0,.46-.75.84.84,0,0,0-.25-.62.87.87,0,0,0-1.14-.07,27,27,0,0,0-2.53,1.26v-.08c.07-.91.11-1.64.11-2.17,0-2.82-.81-4.41-2.44-4.74a.57.57,0,0,0-.56.22.53.53,0,0,0,.14.78,3.49,3.49,0,0,1,1.07,2.33,26.68,26.68,0,0,1,.28,3.19c0,.65.05,1,.07,1.26a15.18,15.18,0,0,0-2.39,1.85,3.51,3.51,0,0,0-1.21,2.48,2.61,2.61,0,0,0,1.21,2.21,4.91,4.91,0,0,0,2.43.81c.52,0,1,.06,1.54.06a15.69,15.69,0,0,0,2.65-.2,5.38,5.38,0,0,0,1.09-.28.87.87,0,0,0,.26-1.39A.81.81,0,0,0,134.44,19.2Z"/><path class="a" d="M148,18.11a22.79,22.79,0,0,0,1.55-7.17l.06,0a.92.92,0,0,0,.31-.71,1,1,0,0,0-.28-.71,1,1,0,0,0-.71-.29,1,1,0,0,0-.79.38h-2.11l.72-3.6a.88.88,0,0,0-.14-.61.81.81,0,0,0-.52-.35.87.87,0,0,0-.61.13.81.81,0,0,0-.36.52l-.76,3.91h-1.69a.56.56,0,0,0,0,1.12h1.47l-1.32,6.84a.72.72,0,0,0,.13.61.69.69,0,0,0,.52.34.74.74,0,0,0,.61-.12.71.71,0,0,0,.34-.51l.05-.2a16.27,16.27,0,0,1,1.61.93,13.84,13.84,0,0,1-1.89,3.05,6.25,6.25,0,0,1-1,1,.42.42,0,0,0-.11.64.47.47,0,0,0,.37.2.47.47,0,0,0,.17,0,4.79,4.79,0,0,0,1.31-.89,10.49,10.49,0,0,0,2.34-3,10.39,10.39,0,0,1,1.44,1.63l0,.15a.89.89,0,0,0,.92.68.91.91,0,0,0,.75-.36,1,1,0,0,0,.19-.81l0-.1A5.36,5.36,0,0,0,148,18.11Zm-.08-7.42a23.16,23.16,0,0,1-1.34,6.71,13.81,13.81,0,0,0-1.93-.7l1.17-6Z"/><path class="a" d="M160,13.09a.91.91,0,0,0-.92.76h-3v-3.6A.93.93,0,0,0,156,10c.88-.82,1.64-1.56,2.25-2.22a1,1,0,0,0,.79-.4A1.09,1.09,0,1,0,157.39,6h-6.62a.51.51,0,0,0-.56.56.52.52,0,0,0,.56.56h5.91c-.38.6-.88,1.35-1.54,2.33a.83.83,0,0,0-.52.25.81.81,0,0,0-.25.59v3.6H150a.51.51,0,0,0-.56.54A.51.51,0,0,0,150,15h4.33v6.72h-.71a.42.42,0,0,0-.46.46.42.42,0,0,0,.46.46h.49a.55.55,0,0,0,0,.18.94.94,0,0,0,.29.69,1,1,0,0,0,.69.28.89.89,0,0,0,1-.93V15H160a.92.92,0,0,0,.67-.27.89.89,0,0,0,.27-.65.92.92,0,0,0-.94-.94Z"/><path class="a" d="M173.92,12.86l.68-.32a.78.78,0,0,0,.46-.73.71.71,0,0,0-.8-.78.75.75,0,0,0-.62.29l-.37.22c-.64-1.32-1.18-2.31-1.59-3a.71.71,0,0,0,.23-.54.67.67,0,0,0-.74-.74.7.7,0,0,0-.38.1,2.37,2.37,0,0,0-2-.87.47.47,0,0,0-.41.3.47.47,0,0,0,.25.71,3.08,3.08,0,0,1,.9.63,2.68,2.68,0,0,1-1.19.36,1.72,1.72,0,0,1-1.12-.47.53.53,0,0,0-.75.76,2.88,2.88,0,0,0,1.79.95,4.37,4.37,0,0,0-1,1.69,3.16,3.16,0,0,0-.08.74,1.77,1.77,0,0,0,.46,1.3,2.44,2.44,0,0,0,1.91.68,6.94,6.94,0,0,0,1.08-.09,11.41,11.41,0,0,0,2.15-.68c.14.3.3.65.46,1a4.67,4.67,0,0,1,.48,1.66.73.73,0,0,1-.08.37c-.08.12-.34.26-1.12.26-.34,0-.8,0-1.38-.08-.76-.07-1.22-.1-1.39-.1h0a4,4,0,0,0-1.95.35,2.87,2.87,0,0,0-1.32,1.17,2,2,0,0,0-.3,1,1.78,1.78,0,0,0,.3,1c.62.94,1.94,1.42,3.93,1.42.48,0,1,0,1.54-.08a.7.7,0,0,0,.76-.79.69.69,0,0,0-.76-.76.79.79,0,0,0-.28,0,10.47,10.47,0,0,1-1.32.08c-1.48,0-2.4-.26-2.75-.78a.67.67,0,0,1,0-.71,1.73,1.73,0,0,1,1.66-.88h.1a14.89,14.89,0,0,1,2.22.26,13.94,13.94,0,0,0,2.23.26c1.33,0,1.61-.75,1.61-1.38a6.82,6.82,0,0,0-.87-2.69Zm-5.67-1.07a6.26,6.26,0,0,1,2.28-2.42,21.21,21.21,0,0,1,1.61,2.74,6.33,6.33,0,0,1-1.7.57,7.6,7.6,0,0,1-1.27.14,1.16,1.16,0,0,1-.86-.23A.9.9,0,0,1,168.25,11.79Z"/><path class="a" d="M193.53,17.89a10.56,10.56,0,0,1-2.61-.26,3.82,3.82,0,0,1-2.34-1.14,1.27,1.27,0,0,1-.25-.78,2.4,2.4,0,0,1,.11-.67,5.82,5.82,0,0,1,2.45-3.34,4,4,0,0,1,1.84-.54l.18,0a.69.69,0,0,0,.67-.79.71.71,0,0,0-.78-.78.75.75,0,0,0-.29.06A14.8,14.8,0,0,1,188.32,9a.53.53,0,0,0-.63.2.51.51,0,0,0,.12.77,5.53,5.53,0,0,0,2.09.85,7.73,7.73,0,0,0-2.59,4,4.11,4.11,0,0,0-.17,1.11,2.66,2.66,0,0,0,.58,1.68,5.55,5.55,0,0,0,3.54,1.68c.21,0,1,.08,2.55.17h.08a.74.74,0,0,0,.54-.23.78.78,0,0,0,.24-.58.8.8,0,0,0-.24-.58A.82.82,0,0,0,193.53,17.89Z"/><path class="a" d="M185,15.13a.52.52,0,0,0-.72.33,12.66,12.66,0,0,0-.47,1.6,5.78,5.78,0,0,1-.18-1.46,12.63,12.63,0,0,1,.49-2.85,12.36,12.36,0,0,0,.5-2.82A2.61,2.61,0,0,0,183.89,8a.5.5,0,0,0-.62-.11.5.5,0,0,0-.27.72,1.92,1.92,0,0,1,.11.71,19.33,19.33,0,0,1-.36,3.07,19,19,0,0,0-.37,3.13,9,9,0,0,0,1.4,5.05.51.51,0,0,0,.42.26.59.59,0,0,0,.22-.05.48.48,0,0,0,.35-.56,10.56,10.56,0,0,1,.24-3.39c.14-.45.24-.8.32-1A.49.49,0,0,0,185,15.13Z"/><path class="a" d="M207.54,10.08a.76.76,0,0,0,0-1.44,6.74,6.74,0,0,1-1.26-.87A1.92,1.92,0,0,0,205,6.35a.53.53,0,0,0-.54.14.48.48,0,0,0-.13.54,5,5,0,0,0,.8,1.32,3,3,0,0,1,0,.42c-.66,0-1.15.05-1.49.05a3.26,3.26,0,0,1-2.27-.58.48.48,0,0,0-.76,0,.5.5,0,0,0,0,.75,5.73,5.73,0,0,0,4.06,1.31,24.8,24.8,0,0,1-4.34,6,.76.76,0,0,0-.48.74.72.72,0,0,0,.8.8,1,1,0,0,0,.59-.27,16.35,16.35,0,0,0,2.47-3.1,19.07,19.07,0,0,0,2.46-4.27A5.47,5.47,0,0,0,207.54,10.08Z"/><path class="a" d="M212.64,19.36l0,0a9.24,9.24,0,0,0-3.42-2.18c0-.42,0-.8-.07-1.16,0-.56-.06-1-.06-1.24a6.13,6.13,0,0,1,.6-3.08,1.37,1.37,0,0,1,1.22-.7,2,2,0,0,1,.72.13l.3.07a.87.87,0,0,0,.61-.23.71.71,0,0,0,.24-.64,1.6,1.6,0,0,0-1.17-1.21,4.5,4.5,0,0,0-1.71-.3,4.72,4.72,0,0,0-1.21.15.52.52,0,0,0-.42.65.52.52,0,0,0,.57.43,4.59,4.59,0,0,1,1,.05c-1.56.93-2.28,3-2.14,6.14,0,.22,0,.42,0,.61A4.62,4.62,0,0,0,206,17c-1.61.55-2.37,1.33-2.25,2.35a2.35,2.35,0,0,0,.74,1.35,3.45,3.45,0,0,0,2.42.95c1.34,0,2.09-1,2.24-3a10.31,10.31,0,0,1,2.05,1.53.77.77,0,0,0,.78.53.76.76,0,0,0,.84-.84.73.73,0,0,0-.17-.47Zm-5.41-1.28a2.56,2.56,0,0,1,.47,0,6.51,6.51,0,0,1-.17,1.45c-.16.62-.44.93-.86.93a1.23,1.23,0,0,1-.86-.36,1.44,1.44,0,0,1-.46-.86c0-.41.32-.77,1.08-1.06A2.14,2.14,0,0,1,207.23,18.08Z"/><path class="a" d="M224.83,12.52a4.76,4.76,0,0,0-1.19.11c.87-1,1.63-1.88,2.25-2.52a2,2,0,0,0,.64-1.33,1,1,0,0,0-.39-.85,1.48,1.48,0,0,0-.93-.3,4.41,4.41,0,0,0-1.82.58,4.51,4.51,0,0,1-1.72.64.52.52,0,0,1-.44-.2.53.53,0,0,0-.77-.1.55.55,0,0,0-.25.35.53.53,0,0,0,.12.42,2.17,2.17,0,0,0,1.4,1.07,1.91,1.91,0,0,0,1.43-.41c.38-.26.77-.54,1.13-.81a1.5,1.5,0,0,1,.57-.18,1.18,1.18,0,0,1-.24.34c-1,1-2.82,3.23-5.72,6.71a.78.78,0,0,0-.42.72.71.71,0,0,0,.24.54.75.75,0,0,0,.57.24.76.76,0,0,0,.61-.3l2-2.55A2.71,2.71,0,0,1,223,14a3.64,3.64,0,0,1,1.36-.2,2.66,2.66,0,0,1,2.16,1,2.41,2.41,0,0,1,.54,1.59,2.87,2.87,0,0,1-.33,1.35,2.69,2.69,0,0,1-1.12,1.17A3,3,0,0,0,223.1,17a1.79,1.79,0,0,0-.57.09,1.86,1.86,0,0,0-1.4,2.1c.09,1,.77,1.5,2,1.6l.55,0a4.57,4.57,0,0,0,4.38-2.33h0a4.38,4.38,0,0,0,.5-2.05,4,4,0,0,0-.83-2.53A3.73,3.73,0,0,0,224.83,12.52Zm-.74,6.83a3.9,3.9,0,0,1-.84,0c-.86-.05-.9-.39-.92-.52a.34.34,0,0,1,.13-.34.5.5,0,0,1,.36-.19C223.25,18.31,223.67,18.66,224.09,19.35Z"/><path class="a" d="M237.34,18.06a2.52,2.52,0,0,0-1.83-.75,2.48,2.48,0,0,0-1.82.75,2.57,2.57,0,0,0,0,3.65,2.48,2.48,0,0,0,1.82.75,2.52,2.52,0,0,0,1.83-.75,2.55,2.55,0,0,0,0-3.65Zm-.17,1.83a1.61,1.61,0,0,1-.48,1.17,1.64,1.64,0,0,1-2.34,0,1.61,1.61,0,0,1-.48-1.17,1.65,1.65,0,0,1,3.3,0Z"/><rect class="b" y="23.74" width="240" height="276.26"/><path class="c" d="M209.11,114.54c0-13.76-6.37-24-10.75-24-3.81,0-6.36,3.2-9.74,9-3,5.15-5.66,10.91-10.92,9.66s-8.51-9.27-11.38-16.1c-5.58-13.28-8.08-18.39-12.38-18.39-4.7,0-7.9,4.87-13.53,17.58C137,100,133.6,108.4,129.18,108.4c-4.08,0-7-4.05-11.43-10-2.8-3.7-5.2-6.11-7.81-6.14-3,0-5.75,2.55-8.46,6.85-5.18,8.19-7.8,13.65-12.53,13.65-4.3,0-6.83-4.72-10.53-13.61-1.25-3-3.07-8-4.94-11.61-1.73-3.44-3.75-6.14-6.49-6.14-4.71,0-7.59,7.31-10.59,15.91-1.85,5.28-3.19,13.51-9.14,13.51s-7.59-7-12.1-7c-4.28,0-7.64,6.2-7.56,14.46.12,12.55,4.48,15.78,7.63,15.78s5-2.73,7.24-5.33,3.42-4,5.65-4S52.38,126.32,54,132c1,3.54,3.07,10.5,4.67,14.94,2.31,6.4,5.85,8.92,8.41,8.89,2.37,0,4.92-2.23,7.81-8.67,2.64-5.9,4.35-10.84,6-14.61S85.2,125,89,125,95.8,127.81,99.42,135c4.94,9.88,8,12,11.24,12,3.8,0,6.19-5.13,10.13-14.67,3.09-7.49,4.84-12.57,8.72-12.18,4.69.47,7.34,11.31,9.16,17.64,2.48,8.63,7.79,30.22,15.81,30.22,7.11,0,11.76-21.94,15.94-37.61,2.36-8.81,6.62-10.1,8.59-10.1,4.5,0,6.57,6,9.71,12.18,2.66,5.28,4.42,7.62,8,7.62,5.49,0,12.39-9.76,12.39-25.63"/><path class="c" d="M115.69,81a5.88,5.88,0,1,1-5.88-5.88A5.88,5.88,0,0,1,115.69,81"/><path class="c" d="M163.75,55.79c0,6.13-5.22,12.25-9.79,12.25s-9.8-6.25-9.8-12.25c0-5.41,4.39-10.27,9.8-10.27s9.79,4.86,9.79,10.27"/><path class="a" d="M157.38,195.72l2.34-.05c.88,0,1.89,0,2.79,0,1.22,0,1.71-.23,1.71-.8s-1.17-1.14-1.66-1.14h0a5.16,5.16,0,0,0-1.17.39l-.08,0-.2.07-.17,0a5.26,5.26,0,0,1-1.24.14h-.1a.31.31,0,0,1-.24-.1.33.33,0,0,1-.11-.25l0-1.07c.06-1.57.14-3.07.2-4a2.12,2.12,0,0,0-1.9-1.68,1,1,0,0,0-.8.33,1.71,1.71,0,0,0-.26,1.33s.08,3.47.1,5.17a.35.35,0,0,1-.34.36l-1.52.06h0l-1.08,0h-.46l-.18,0-.26,0-.19,0h0l-.54,0a.37.37,0,0,0-.38.37A1.59,1.59,0,0,0,153,196h0a5.93,5.93,0,0,0,.89-.12l.2,0h0a.35.35,0,0,1,.21.07.39.39,0,0,1,.15.25,4.63,4.63,0,0,1,0,.57c0,14.91-2.34,19.54-4.54,22.7-.17.21-.2.3-.2.43a.35.35,0,0,0,.33.38h.06a7.94,7.94,0,0,0,2.48-2.39c3-4.81,3.84-9.54,4.14-15.61A.35.35,0,0,1,157,202a.32.32,0,0,1,.27-.07h.16l1-.06.87-.06a.34.34,0,0,1,.27.1.36.36,0,0,1,.11.26c-.12,6.2-.46,9.93-1.2,12.89-.48,1.9-1.08,2.16-1.65,2.16a6.15,6.15,0,0,1-.78-.1,7,7,0,0,0-.74-.13c-.37,0-.42.24-.42.38,0,.37,1.1,2.81,3.11,2.81.9,0,1.69-.66,2.41-2,.61-1.16,1.41-4.06,1.78-11.19,0-.4,0-.89,0-1.42V205a17.84,17.84,0,0,1,.1-2,6.85,6.85,0,0,1,.21-.82,1.45,1.45,0,0,0-.21-1.25,1.79,1.79,0,0,0-1.32-.79,1.46,1.46,0,0,0-.84.19,1.32,1.32,0,0,1-.77.13h-2.09a.31.31,0,0,1-.26-.11.35.35,0,0,1-.1-.25l0-.39c.06-1.1.14-2.94.14-3.47h0v-.14a.33.33,0,0,1,.1-.27.33.33,0,0,1,.25-.12"/><path class="a" d="M180.3,208.56c0-.62-1.24-1.39-1.72-1.39a4.17,4.17,0,0,0-1,.32l-.16.06-.3.11a6.79,6.79,0,0,1-1.91.2l-2,.07a.41.41,0,0,1-.27-.13.3.3,0,0,1-.1-.27l.09-1a36.56,36.56,0,0,0,.27-3.68,2.1,2.1,0,0,0,0-.37.38.38,0,0,1,.07-.28.31.31,0,0,1,.25-.13l1.19-.08,1.45,0h.11l1.35,0h.3c.94-.06,1.07-.13,1.07-.54s-1.12-1.38-1.69-1.38a4.77,4.77,0,0,0-1.12.36l-.31.11a10.79,10.79,0,0,1-2.28.23l-3.2,0a.34.34,0,0,1-.31-.17.32.32,0,0,1,0-.34l0-.09c.18-.34.2-.26.35-.52a2.49,2.49,0,0,0,.56-1.54c-.06-1.36-2.08-1.4-2.09-1.4-.32,0-.4.09-.43,1.09a23.65,23.65,0,0,1-2.6,6.43c-.07.12-.14.26-.22.39l-.16.26c-.48.81-.48.87-.49,1a.31.31,0,0,0,.32.3,13.07,13.07,0,0,0,3.62-3.81.4.4,0,0,1,.34-.17,4.29,4.29,0,0,0,.69,0,.36.36,0,0,1,.28.06.37.37,0,0,1,.14.24,4.32,4.32,0,0,1,.05.57,31.08,31.08,0,0,1-.33,4.64.34.34,0,0,1-.33.3l-3.13.13h-1.55l-.5-.05h-.13l-.55-.05a.37.37,0,0,0-.38.39,1.6,1.6,0,0,0,1.44,1.2c.2,0,.7-.05,1.41-.1s1.24-.11,1.47-.11l1.57,0h0a.37.37,0,0,1,.28.13.36.36,0,0,1,.08.3c-.66,3.89-2.15,6.49-6.47,9.66a.46.46,0,0,0-.29.4.34.34,0,0,0,.32.37h.06a12.67,12.67,0,0,0,3-1.51c5-3.4,5.84-7.22,6.15-9.06a.34.34,0,0,1,.33-.28l2.93-.12c.94,0,2,0,2.91,0,1.11,0,1.6-.09,1.6-.58"/><path class="a" d="M182,218.57a21.49,21.49,0,0,1-7.88-6.38c-.15-.22-.34-.36-.48-.32s-.22.23-.17.49a10.13,10.13,0,0,0,1.52,3.37c1.51,2.4,2.88,3.88,4,4.18a3.6,3.6,0,0,0,.88.1c1.17,0,2.46-.56,2.57-1v0c0-.15-.09-.22-.47-.42"/><path class="a" d="M168.81,194.86c.23,0,.73,0,1.23-.08s1-.06,1.21-.06l4.56-.14h2.78c1.23,0,1.72-.23,1.72-.79s-1.53-1.19-1.92-1.19a6.56,6.56,0,0,0-1.23.4,5.66,5.66,0,0,1-2.2.3l-4.93.11h-.47a.34.34,0,0,1-.31-.17.38.38,0,0,1,0-.36l.62-1.11.1-.24a5.09,5.09,0,0,0,1-2.41,2.11,2.11,0,0,0-2.35-1.82,1.84,1.84,0,0,0-.38,0,.37.37,0,0,0-.34.41c0,.06,0,.24,0,.4l0,.3v.11c0,.44-.71,4-3.87,10.27L164,199a.44.44,0,0,0-.12.25.31.31,0,0,0,.32.3h0c.37-.08,2.31-1.47,3.9-4.5a.38.38,0,0,1,.4-.19,1.17,1.17,0,0,0,.3.05"/><path class="a" d="M84.38,202.32c-.27-.23-1.39-1.25-1.39-1.25a.46.46,0,0,1,0-.63c.84-1,3.39-5.26,3.39-5.26a19.17,19.17,0,0,0,1.11-2l.12-.24a4.11,4.11,0,0,1,.41-.76,1.79,1.79,0,0,0,0-1.68,2,2,0,0,0-2.2-.82l-.44.15L85,190a4.08,4.08,0,0,1-1.47.35l-2.83.08H79.14a.37.37,0,0,1-.36-.31,1.56,1.56,0,0,0-1.8-1.19c-.46.12-.94.63-.94,1.73l.14,7.5v.91c0,3.33,0,8.35-.07,11.48,0,.43-.06,1.45-.12,2.69l0,.37c-.11,2.24-.24,4.49-.24,5.3a1.77,1.77,0,0,0,1.52,1.46,1.89,1.89,0,0,0,1.65-1.72c0-.25,0-1.38-.06-1.6-.06-5.09-.1-9-.1-16.43,0-1,0-3.29,0-5.29,0,0,0-.07,0-.1a1.18,1.18,0,0,0,0-.28v-3a.36.36,0,0,1,.11-.25.38.38,0,0,1,.27-.09h.08c.21,0,.79,0,1.39-.08l1.56-.06,2.27-.06a.44.44,0,0,1,.29.14.37.37,0,0,1,.06.32,48.64,48.64,0,0,1-3.08,8.52c0,.07-.07.15-.1.2a.67.67,0,0,0-.1.3c0,.17.09.26.35.52,1.74,1.78,3.76,4.93,3.76,8A5.13,5.13,0,0,1,85,212.2a2.11,2.11,0,0,1-2,1s-.24,0-1-.09c-.39,0-.8-.09-.93-.09a.36.36,0,0,0-.26.1s-.1.1-.1.32a5,5,0,0,0,3.28,2.16c1.57,0,4.63-2.06,4.63-5.85,0-3.59-2.7-6.06-4.17-7.4"/><path class="a" d="M72.91,200.51c1.09,0,1.56-.19,1.56-.62s-1.26-1.36-1.84-1.36a4.31,4.31,0,0,0-1.06.37l-.21.08a1,1,0,0,0-.27.1,1.94,1.94,0,0,1-.47.12.37.37,0,0,1-.37-.16.38.38,0,0,1,0-.4,38.55,38.55,0,0,0,3.51-5.84l.49-1a2.07,2.07,0,0,0,.25-.69,1.7,1.7,0,0,0-.48-1.34,2.51,2.51,0,0,0-1.62-.73.4.4,0,0,0-.42.44.89.89,0,0,0,0,.11l0,.23c0,.1,0,.15,0,.18,0,.81-1.29,3.22-1.68,3.94a.37.37,0,0,1-.3.19.33.33,0,0,1-.3-.16,2.14,2.14,0,0,0-1.44-.81,3.25,3.25,0,0,0-.76.22.35.35,0,0,1-.33,0,.36.36,0,0,1-.15-.29v-3.66a1.91,1.91,0,0,0-1.71-1.7,1,1,0,0,0-.73.29,1.85,1.85,0,0,0-.32,1.38v4.08a.35.35,0,0,1-.34.35l-1,.08H60.9a1.23,1.23,0,0,1-.28,0c-.16,0-.24,0-.32,0-.35,0-.48.2-.48.35a1.59,1.59,0,0,0,1.46,1.14c.21,0,.63,0,1-.07l.36,0c.43,0,.78-.07,1-.07H64a.31.31,0,0,1,.26.09.36.36,0,0,1,.11.26l0,3.51a.35.35,0,0,1-.33.36l-3.14.1c-.49,0-1.05,0-1.58,0l-.33,0-.21,0c-.37,0-.6-.07-.68-.07a.37.37,0,0,0-.36.37c0,.25.62,1.28,1.43,1.28.25,0,.86-.06,1.71-.14s1.61-.14,1.9-.14l2.66-.05a.32.32,0,0,1,.31.19.33.33,0,0,1,0,.37,30,30,0,0,1-3.1,3.53l-1,.86a27.4,27.4,0,0,1-2.71,2.6l-.3.26c-.42.39-.91.81-1.53,1.38l-.06.06a.33.33,0,0,0-.13.24.36.36,0,0,0,.36.38,14.62,14.62,0,0,0,3.63-2.62.39.39,0,0,1,.23-.09.35.35,0,0,1,.14,0,.37.37,0,0,1,.22.31c.06,1.13.06,2.31.06,3.35s0,3.56-.17,5.63c0,.91.53,1.75,1.13,1.75a1.75,1.75,0,0,0,1.64-1.24.35.35,0,0,1,.34-.31l4.84-.18a.32.32,0,0,1,.35.26,1.46,1.46,0,0,0,.48.69,1.12,1.12,0,0,0,.85.38,1.46,1.46,0,0,0,1.51-1.14c0-.16,0-.88,0-2v-.28c0-.45,0-.85,0-1,0-3.35.1-5.19.13-6.09,0-.29,0-.48,0-.59a5.09,5.09,0,0,1,.1-.86,2.23,2.23,0,0,0,0-.23,1.39,1.39,0,0,0-.35-1.1,2.11,2.11,0,0,0-2.35-.37A2.9,2.9,0,0,1,69,205l-3.5,0a.35.35,0,0,1-.33-.23.33.33,0,0,1,.09-.39,24.21,24.21,0,0,0,3.48-3.71.37.37,0,0,1,.24-.14l.54,0Zm-4,10a1.58,1.58,0,0,0-1.06-.59,4.07,4.07,0,0,0-.82.16l-.21.05-.41.08a7.61,7.61,0,0,1-1.19.1h-.66a.35.35,0,0,1-.26-.09.36.36,0,0,1-.11-.25c0-1.28,0-2.39,0-3.22a.35.35,0,0,1,.35-.35l.94,0,.43,0,1,0,2.49-.06a.35.35,0,0,1,.26.1.35.35,0,0,1,.1.25c0,1,0,2.36,0,3.75l0,1c0,1.61-.05,3.15-.06,4.06a.35.35,0,0,1-.14.27.36.36,0,0,1-.31.07,3.12,3.12,0,0,0-1.12.07c-.2,0-.56.07-.72.07l-.7.06c-.36,0-.71,0-1.14,0l-1,0h0a.41.41,0,0,1-.25-.11.33.33,0,0,1-.11-.26l0-3.63a.35.35,0,0,1,.34-.35l3.47-.18c.35,0,.8-.08,1-.36a.68.68,0,0,0,0-.59m-1.24-12a.4.4,0,0,1-.3.15.16.16,0,0,1-.1,0,.35.35,0,0,1-.26-.33v-2.88a.34.34,0,0,1,.33-.35l.2,0h.73a4.7,4.7,0,0,0,.87-.06.37.37,0,0,1,.37.13.38.38,0,0,1,0,.4c-.58,1-1.21,2-1.87,3"/><path class="a" d="M103.72,216.34l.11-.07c6.57-5.19,10.13-12.73,11.3-15.22a7.07,7.07,0,0,1,.6-1,2.71,2.71,0,0,0,.53-1.21,1.57,1.57,0,0,0-1.24-1.57,1.86,1.86,0,0,0-.48-.06,4.58,4.58,0,0,0-1.51.35,3.52,3.52,0,0,1-1.36.17l-5.66.09h-.39l-.14,0-.66,0a.36.36,0,0,0-.38.37,1.64,1.64,0,0,0,1.45,1.18c.21,0,.8-.05,1.43-.11s1.25-.1,1.46-.1l3.55-.06h0a.35.35,0,0,1,.28.14.33.33,0,0,1,0,.32,42.3,42.3,0,0,1-8.14,14.8l-.19.2c-1.36,1.44-1.36,1.62-1.36,1.71a.35.35,0,0,0,.32.37v0c.12,0,.19,0,.41-.21"/><path class="a" d="M136,214.4a33.41,33.41,0,0,1-11.29-12.63.32.32,0,0,1,0-.27.41.41,0,0,1,.18-.21,34,34,0,0,0,5.94-3.62c.89-.69,1.36-1.21,1.46-1.63a2.17,2.17,0,0,0-.44-1.92,1.8,1.8,0,0,0-1.18-.75.9.9,0,0,0-.16,0c-.16.06-.23.17-.41.51l-.26.45-.18.29c-.06.09-.08.14-.1.17l-.09.13a31.81,31.81,0,0,1-4.89,5.38.38.38,0,0,1-.32.1.39.39,0,0,1-.25-.2c-.29-.62-.68-1.54-.92-2.24-.08-.28-.25-.62-.53-.62a.36.36,0,0,0-.27.12.57.57,0,0,0-.11.42,27.6,27.6,0,0,0,5.78,13.42l.26.36c.93,1.26,2.86,3.89,4.34,4.22a4.7,4.7,0,0,0,3.84-.87l0-.16c0-.17-.1-.24-.42-.47"/><path class="a" d="M213.64,196.83a1,1,0,0,0,.29-.22,3.62,3.62,0,0,0,.55-2.5.38.38,0,0,1,.42-.36,1.14,1.14,0,0,0,.27,0h.51l2.35-.09,6.18-.18a.44.44,0,0,1,.34.16.39.39,0,0,1,.07.34l-.11.36a8,8,0,0,0-.35,1.14v0a.44.44,0,0,0,.41.32,19.21,19.21,0,0,0,3.37-1.41c.4-.26.68-.48.64-.89a1.33,1.33,0,0,0-.45-.83,4.4,4.4,0,0,0-2.58-.74,3.86,3.86,0,0,0-.9.26,4.09,4.09,0,0,1-.41.13,5.77,5.77,0,0,1-1.16.1l-1.61.06a.38.38,0,0,1-.36-.35v-.37c0-1.6.16-2.8.2-3.25v-.06a2.12,2.12,0,0,0-1.9-1.67.89.89,0,0,0-.71.31,1.93,1.93,0,0,0-.35,1.37c0,.18.08,2.55.1,3.68a.35.35,0,0,1-.34.36l-2.63.11-.87,0a.35.35,0,0,1-.33-.24c-.11-.32-.24-.38-.43-.38s-.28,0-.36.47a3.48,3.48,0,0,1-.85,2,5.1,5.1,0,0,0-.31.42,1.91,1.91,0,0,0-.3.5s0,.21-.07.27a1,1,0,0,0,.17.8,1.28,1.28,0,0,0,1,.46,1.82,1.82,0,0,0,.54-.13m-.32.76a.46.46,0,0,0-.18.34c0,.06,0,.18.08.45l0,.08c0,.12.08.36.09.44,0,.81.06,3.54.06,4.22,0,1.18,0,5.08-.09,7.41-.06,4.31-.09,7-.09,8.11a1.36,1.36,0,0,0,1.28,1.29,1.54,1.54,0,0,0,1.52-1.38.36.36,0,0,1,.34-.29l7.14-.23a.37.37,0,0,1,.37.3,1.35,1.35,0,0,0,.39.82,1.08,1.08,0,0,0,.86.31,1.63,1.63,0,0,0,1.49-1.8c0-1,.17-5.64.17-5.79a8,8,0,0,1,.22-1.14,1.2,1.2,0,0,0-.2-1,1.64,1.64,0,0,0-1.43-.61,6.38,6.38,0,0,0-1.45.4,4,4,0,0,1-1.21.12l-4.55.14c-.59,0-1.22,0-1.75,0a.37.37,0,0,1-.33-.36l0-2.93a.34.34,0,0,1,.34-.36l6.25-.21a.35.35,0,0,1,.35.27,1.27,1.27,0,0,0,.32.57,1.21,1.21,0,0,0,.91.38,1.64,1.64,0,0,0,1.44-1.81c0-.37.06-4.22.09-4.53a5.62,5.62,0,0,1,.2-1.41l0-.18a1.43,1.43,0,0,0-.26-1.23,1.73,1.73,0,0,0-1.63-.5c-.13.05-.37.12-.66.2l-.44.14a2.59,2.59,0,0,1-1,.12l-4.08.1-.43,0h-1.67a.39.39,0,0,1-.17-.06,6.67,6.67,0,0,0-1.87-.46,1,1,0,0,0-.45.09m2.85,13.51a.33.33,0,0,1,.3-.07,1.38,1.38,0,0,0,.35,0l1.36,0,.21,0,1,0,4.31-.12a.37.37,0,0,1,.25.1.34.34,0,0,1,.11.25c0,.34,0,.84-.05,1.94l-.13,3.15a.36.36,0,0,1-.33.35c-.79.06-2.12.19-2.54.19l-4.53.12h0a.32.32,0,0,1-.25-.1.33.33,0,0,1-.11-.25l-.06-5.21a.39.39,0,0,1,.13-.28m0-11.38a.36.36,0,0,1,.37-.34h.07l1.06-.06H218l1.15-.07,3.65-.09a.39.39,0,0,1,.25.1.36.36,0,0,1,.11.25c0,.7,0,1.48,0,2.47L223,204.1a.35.35,0,0,1-.12.25.39.39,0,0,1-.27.1h-.19l-.42,0c-.68.06-2.3.2-2.7.2l-2.84.09h0a.34.34,0,0,1-.35-.35c0-1.3,0-2.87.05-4.7"/><path class="a" d="M201,219.26c1.63-.3,3.54-1.75,6.81-3.95a.39.39,0,0,1,.31-.06.36.36,0,0,1,.22.23,5.1,5.1,0,0,1,.19.5l.15.44.16.44a1.58,1.58,0,0,0,1.36.72c.31,0,.94-.29.94-1.25,0-2.31-3.49-4.71-4-4.89s-.77.2-.46.65a9.27,9.27,0,0,1,1,1.85.32.32,0,0,1,0,.27.26.26,0,0,1-.19.19l-3.76,1.42a.36.36,0,0,1-.32,0,.34.34,0,0,1-.16-.29l-.06-6.41a.35.35,0,0,1,.34-.36l4.2-.16a.34.34,0,0,1,.34.21,1.63,1.63,0,0,0,.21.34,1.37,1.37,0,0,0,1,.42,1.56,1.56,0,0,0,1.47-1.48c0-.39,0-1.29,0-2.31v-.69c0-1.54,0-2.88.05-3.24a12.39,12.39,0,0,1,.14-1.62l.05-.17a1.27,1.27,0,0,0-.23-1.13,1.52,1.52,0,0,0-1.2-.49,2.49,2.49,0,0,0-1.14.28c-.14.09-.2.1-.73.13h-.12a.35.35,0,0,1-.38-.32v-.23c0-.21,0-.7.07-1.2v-.17c0-.5.07-1,.07-1.19,0-.84-2.1-1.23-2.86-1.28a.34.34,0,0,1-.3-.2.36.36,0,0,1,0-.36c.56-.83,1.1-1.69,1.6-2.55a.33.33,0,0,1,.27-.18.36.36,0,0,1,.31.12A9.17,9.17,0,0,1,208,194l0,.08a15.38,15.38,0,0,0,.63,1.41,1.57,1.57,0,0,0,1.36,1,1.06,1.06,0,0,0,.87-.78,1.21,1.21,0,0,0,.08-.25,2.3,2.3,0,0,0,0-.26c0-1-1.6-3.13-4.16-4.83a.35.35,0,0,1-.12-.46,1.36,1.36,0,0,0,.17-.55,1.75,1.75,0,0,0-.45-1.38,2.49,2.49,0,0,0-1.63-.69c-.33,0-.41.32-.49.58a14.27,14.27,0,0,1-.46,2.08c-.53,1.59-1.77,4.94-5.88,10.1a.59.59,0,0,0,0,.18.37.37,0,0,0,.32.37h.09l.07-.05s.62-.5,1.58-1.46a.34.34,0,0,1,.36-.09.35.35,0,0,1,.24.27c0,.15,0,.24,0,.31.13,1.79.09,4.38.09,16.91a.34.34,0,0,1-.24.34,1.22,1.22,0,0,0-.9,1.22,1.31,1.31,0,0,0,1.46,1.23m7.09-12.47a.35.35,0,0,1-.35.34l-.31,0h-.14c-.89.09-1.94.2-2.28.2l-1.39,0h0a.38.38,0,0,1-.25-.11.35.35,0,0,1-.1-.24l0-2.23a.37.37,0,0,1,.34-.37l3.52-.13a6.19,6.19,0,0,0,.67,0,.44.44,0,0,1,.28.1.38.38,0,0,1,.09.27Zm-1.71-6.68,1.43-.05a.32.32,0,0,1,.26.1.41.41,0,0,1,.11.26v2.16a.34.34,0,0,1-.17.3c-.1.07-2.66.21-2.66.21a3,3,0,0,1-.6,0l-1.14,0h0a.36.36,0,0,1-.36-.35c0-.87,0-1.87,0-2.25a.38.38,0,0,1,.14-.27.35.35,0,0,1,.29-.06l.29,0c.22,0,.7,0,1.25-.07s.94-.07,1.16-.07m-2-4.58,0,.09a6.41,6.41,0,0,1,.18,1.85v1.05a.35.35,0,0,1-.34.35c-.41,0-.71,0-.92,0h-.49a.89.89,0,0,1-.26-.09,3.64,3.64,0,0,0-1.14-.57.36.36,0,0,1-.24-.24.37.37,0,0,1,.08-.33,33.11,33.11,0,0,0,2.2-2.75.36.36,0,0,1,.63.08,3,3,0,0,0,.26.53"/><path class="a" d="M119,187.5a1,1,0,0,0-.81.3,1.71,1.71,0,0,0-.25,1.38c0,.33.08,3.18.09,12.11,0,4.39-.1,13.73-.2,14.52-.1.63-.16.78-.28.88l-.06,0a.78.78,0,0,1-.39.08c-.1,0-.39,0-.7-.08l-.37,0-.53-.06a.39.39,0,0,0-.27.11.43.43,0,0,0-.1.36c.09.28,1.62,2.65,2.91,2.78a2.34,2.34,0,0,0,1.89-.85,4.61,4.61,0,0,0,.88-3c0-.62,0-2,0-3.64l0-3.08c0-3-.07-6.15-.07-7.29v-.19c0-5.34.13-9.3.18-11.21l0-.33a2.09,2.09,0,0,0,0-.25l0-.83a2.13,2.13,0,0,0-1.9-1.69"/><path class="a" d="M27.19,206.56l4.24-.17a.35.35,0,0,1,.33.17.9.9,0,0,0,.14.2,1.49,1.49,0,0,0,1.12.48,1.78,1.78,0,0,0,1.59-1.85v-5.3a4.41,4.41,0,0,1,.12-1.26,1.55,1.55,0,0,0-.24-1.35,1.79,1.79,0,0,0-1.47-.73,3.77,3.77,0,0,0-1.12.25c-.14,0-.26.08-.37.11a7.38,7.38,0,0,1-1.45.13l-8.75.21a19.76,19.76,0,0,1-2.59,0,2.74,2.74,0,0,1-.92-.34,2.14,2.14,0,0,0-1.2-.34.77.77,0,0,0-.51.32.9.9,0,0,0-.15.64,5.75,5.75,0,0,1,.08.73,27.12,27.12,0,0,1,.07,3.33v.7c0,.3,0,1.15-.05,2v.18c0,.73,0,1.57,0,1.8a1.51,1.51,0,0,0,1.33,1.36,1.75,1.75,0,0,0,1.39-.86.37.37,0,0,1,.31-.2l4.68-.15a.32.32,0,0,1,.26.1.36.36,0,0,1,.11.25c.06,8.4,0,9-.14,9.57-.15,1-.38,1.1-1.22,1.1a7,7,0,0,1-.84-.14,5.37,5.37,0,0,0-.79-.12.37.37,0,0,0-.39.37c0,.48,1.7,2.92,3,3.05a2.58,2.58,0,0,0,2.15-1.13,5.77,5.77,0,0,0,1-3.58c0-.39,0-1.18,0-2.12l0-3.73c0-.77,0-1.4,0-1.68v-.34c0-.36,0-.89,0-1a1.2,1.2,0,0,0,0-.27.32.32,0,0,1,.1-.25.35.35,0,0,1,.25-.12m-8-1.19h0a.37.37,0,0,1-.36-.34c0-.44,0-1,0-1.65v-.23c0-1.08,0-2.18,0-2.59s0-.95,0-1.37a.41.41,0,0,1,.13-.25.42.42,0,0,1,.27-.09.5.5,0,0,0,.17,0l.81,0,1.34,0,.85,0,9.05-.23a.35.35,0,0,1,.26.1.36.36,0,0,1,.11.26c0,.71,0,1.83,0,2.85v1.2c0,.61,0,1.18,0,1.61a.34.34,0,0,1-.33.34c-.32,0-1.09.11-1.23.14-.64.05-1.53.08-2.39.11Z"/><path class="a" d="M31.06,210a.36.36,0,0,0-.38.31l0,.16a8.91,8.91,0,0,0,.85,1l.14.17a11.52,11.52,0,0,1,2,3.16c.12.24.22.47.37.78.3.63.63,1.28,1,2,.68,1.29,1.44,1.46,1.74,1.48h.13a1.68,1.68,0,0,0,1.47-1.47c.07-.83-.51-2-1.71-3.41-2.2-2.57-5.08-4.08-5.63-4.11"/><path class="a" d="M37.11,191.58a5.19,5.19,0,0,0-1.29.44c-.43.17-.62.25-.7.27a26.55,26.55,0,0,1-4.4.35l-3.59.09a.46.46,0,0,1-.25-.1.38.38,0,0,1-.11-.26v-3.51a2.12,2.12,0,0,0-1.9-1.7,1.05,1.05,0,0,0-.77.3,1.74,1.74,0,0,0-.29,1.36v3.57a.36.36,0,0,1-.34.36l-6.16.2c-1.95.05-3,0-3.72,0H13c-.33-.06-1.17-.18-1.37-.18a.38.38,0,0,0-.36.37,2,2,0,0,0,1.65,1.43l.48-.05c.23,0,.46-.06.58-.06l.59,0c.78-.05,2.86-.17,3.36-.17l15.52-.39,1.91,0h2.19c1.38,0,1.81-.08,1.81-.61,0-.81-1.8-1.71-2.26-1.71"/><path class="a" d="M17.52,209.88c-.27,0-.43.2-.56.68a6.5,6.5,0,0,1-1,2.22l-.19.27a19.39,19.39,0,0,1-1.38,1.81l-.54.64c-.46.55-.9,1.07-1.39,1.6l-.27.29-.61.62-.13.15-.15.15c-.32.28-.26.46-.24.52a.35.35,0,0,0,.31.2h.14a10.25,10.25,0,0,0,2-1.09l.11-.07a29.84,29.84,0,0,0,3.56-2.78,4.64,4.64,0,0,1,.41-.36c1.43-1.2,2.33-2,2.44-2.46a1.34,1.34,0,0,0-.23-1.12,3.7,3.7,0,0,0-2.21-1.26"/><path class="a" d="M24.25,242.3h-.56a.37.37,0,0,1-.23-.12l-4.21-5.41a.29.29,0,0,1,0-.36l1.76-2a2.79,2.79,0,0,1,1.73-1,1.48,1.48,0,0,0,.76-.15.83.83,0,0,0,.32-1.18.82.82,0,0,0-.77-.43,1.43,1.43,0,0,0-.71.2,4.08,4.08,0,0,0-.78.59l-.27.25c-.36.31-1,1-1.22,1.21l-2.52,2.81a.61.61,0,0,0,0,.78l4,5.19a1.24,1.24,0,0,0,1.1.59h1.61a.51.51,0,0,0,.51-.48.56.56,0,0,0-.51-.5"/><path class="a" d="M15.68,231.85H14a.48.48,0,0,0-.49.47.55.55,0,0,0,.49.5h.32a.25.25,0,0,1,.2.09.22.22,0,0,1,.08.19V242a.29.29,0,0,1-.28.28h-.11a.49.49,0,0,0-.49.5.54.54,0,0,0,.49.48h1.42a.71.71,0,0,0,.74-.7v-10a.78.78,0,0,0-.71-.71"/><path class="a" d="M39.37,231.66a1.26,1.26,0,0,0-.49.11,5,5,0,0,0-1.48,1.34,10.88,10.88,0,0,0-.75,1.13l-1.09,1.91a.29.29,0,0,1-.24.13c-.15,0-.19-.05-.24-.13l-2.23-3.82a.89.89,0,0,0-.79-.48h-2a.48.48,0,0,0-.49.47.55.55,0,0,0,.49.5h.82a.29.29,0,0,1,.24.14l2.74,4.73A.81.81,0,0,1,34,238l0,4a.29.29,0,0,1-.29.28h-.1a.49.49,0,0,0-.5.49.52.52,0,0,0,.5.48H35a.81.81,0,0,0,.74-.71V238a.71.71,0,0,1,.08-.34l1.82-3.06c.31-.55.9-1.19,1.5-1.19a1.47,1.47,0,0,0,.64-.13,1,1,0,0,0,.45-.59.82.82,0,0,0-.12-.6.85.85,0,0,0-.76-.42"/><path class="a" d="M51.23,231.82a5.71,5.71,0,1,0,5.71,5.72,5.71,5.71,0,0,0-5.71-5.72m0,10.41c-2.13,0-3.86-2.11-3.86-4.69s1.73-4.68,3.86-4.68,3.88,2.09,3.88,4.68-1.74,4.69-3.88,4.69"/><path class="a" d="M72.39,231.86H65.46a3.93,3.93,0,0,0-2.91.93,1,1,0,0,0-.18,1.34.85.85,0,0,0,.63.27l.2,0a.82.82,0,0,0,.6-.58c.23-.84,1.57-.91,1.6-.91h1.42a.29.29,0,0,1,.28.29V242a.29.29,0,0,1-.28.28H66.7a.51.51,0,0,0-.5.5.54.54,0,0,0,.5.48h1.45a.75.75,0,0,0,.74-.71v-9.39a.29.29,0,0,1,.29-.29h3.22a.52.52,0,1,0,0-1"/><path class="a" d="M83.91,231.82a5.71,5.71,0,1,0,5.71,5.72,5.71,5.71,0,0,0-5.71-5.72m0,10.55c-2.09,0-3.85-2.21-3.85-4.83s1.73-4.68,3.85-4.68,3.88,2.09,3.88,4.68-1.77,4.83-3.88,4.83"/><path class="a" d="M165.34,242.3h-.25a.31.31,0,0,1-.27-.18l-4-10a.52.52,0,0,0-.5-.42.54.54,0,0,0-.5.38l-4,10a.27.27,0,0,1-.24.18h-.22a.5.5,0,0,0-.49.5.53.53,0,0,0,.49.48H156a.7.7,0,0,0,.6-.53l1.21-3.08a.43.43,0,0,1,.39-.28h3.25a.43.43,0,0,1,.4.28l1.1,2.64a1.36,1.36,0,0,0,1.24,1h1.13a.5.5,0,0,0,.49-.48.56.56,0,0,0-.49-.5m-4.17-4.05a.31.31,0,0,1-.23.12h-2.17a.29.29,0,0,1-.23-.12.27.27,0,0,1,0-.26l1.09-2.69a.28.28,0,0,1,.51,0L161.2,238a.34.34,0,0,1,0,.26"/><path class="a" d="M116.23,242.3H116a.28.28,0,0,1-.26-.18l-4.06-10a.52.52,0,0,0-.5-.42.55.55,0,0,0-.5.38l-4,10a.28.28,0,0,1-.26.18h-.21a.5.5,0,0,0-.49.5.53.53,0,0,0,.49.48h.74a.71.71,0,0,0,.62-.53l1.2-3.08a.43.43,0,0,1,.4-.28h3.24a.45.45,0,0,1,.41.28l1.1,2.64a1.34,1.34,0,0,0,1.24,1h1.11a.5.5,0,0,0,.5-.48.55.55,0,0,0-.5-.5m-4.16-4.05a.31.31,0,0,1-.23.12h-2.17a.33.33,0,0,1-.24-.12.3.3,0,0,1,0-.26l1.09-2.69a.27.27,0,0,1,.26-.17.3.3,0,0,1,.26.17l1.07,2.69a.25.25,0,0,1,0,.26"/><path class="a" d="M129.59,242.77a5.71,5.71,0,1,0-2.81.47h.38a2.92,2.92,0,0,1,1.7.89,3,3,0,0,0,2,.94h0a2.83,2.83,0,0,0,1.82-.49.5.5,0,0,0,.2-.37.33.33,0,0,0-.3-.36h-.87a6.71,6.71,0,0,1-.87,0,3.45,3.45,0,0,1-1.34-.55.26.26,0,0,1-.12-.26.29.29,0,0,1,.16-.23m-2.33-9.91c2.13,0,3.86,2.09,3.86,4.68s-1.73,4.69-3.86,4.69-3.87-2.11-3.87-4.69,1.73-4.68,3.87-4.68"/><path class="a" d="M149.39,231.86h-1.47a.7.7,0,0,0-.73.7l0,6.08c0,2.16-1.13,3.58-2.87,3.58s-2.87-1.42-2.87-3.63l0-6a.78.78,0,0,0-.73-.7h-1.45a.48.48,0,0,0-.5.47.55.55,0,0,0,.5.5h.11a.28.28,0,0,1,.27.28v5.51a4.41,4.41,0,0,0,4.65,4.66,4.46,4.46,0,0,0,4.66-4.66v-5.51a.28.28,0,0,1,.27-.28h.12a.49.49,0,0,0,.49-.5.53.53,0,0,0-.49-.47"/><path class="a" d="M207.9,231.86h-1.46a.72.72,0,0,0-.74.7v6.08c0,2.16-1.12,3.58-2.85,3.58S200,240.81,200,238.6l0-6a.77.77,0,0,0-.73-.7h-1.44a.49.49,0,0,0-.51.47.56.56,0,0,0,.51.5h.09a.28.28,0,0,1,.28.28v5.51a4.66,4.66,0,1,0,9.32,0v-5.51a.28.28,0,0,1,.27-.28h.11a.5.5,0,0,0,.5-.5.53.53,0,0,0-.5-.47"/><path class="a" d="M190.5,232.83h.12a.5.5,0,0,0,.49-.5.52.52,0,0,0-.49-.47h-2.57a.5.5,0,0,0-.51.47.56.56,0,0,0,.51.5h.1a.29.29,0,0,1,.21.09.3.3,0,0,1,.08.19V242a.3.3,0,0,1-.29.28h-.1a.51.51,0,0,0-.51.5.55.55,0,0,0,.51.48h2.57a.48.48,0,0,0,.49-.48.54.54,0,0,0-.49-.5h-.12a.32.32,0,0,1-.2-.1.26.26,0,0,1-.09-.18v-8.91a.29.29,0,0,1,.29-.28"/><path class="a" d="M227,232.13a1,1,0,0,0-1.21-.34,4.43,4.43,0,0,0-2.31,2l-3,4.2a.29.29,0,0,1-.47,0l-3.62-5.59c-.24-.37-.42-.52-.73-.52h-.9a.49.49,0,0,0-.51.47.56.56,0,0,0,.51.5H215a.27.27,0,0,1,.2.09.26.26,0,0,1,.08.2V242a.29.29,0,0,1-.28.28h-.23a.5.5,0,0,0-.5.5.54.54,0,0,0,.5.48h.79a.75.75,0,0,0,.74-.71v-5.86a.28.28,0,0,1,.25-.27.29.29,0,0,1,.26.11l2.32,3.61a.8.8,0,0,0,.86.42.94.94,0,0,0,.43-.34l2.43-3.69a.29.29,0,0,1,.53.15l0,5.87a.8.8,0,0,0,.74.71h1.45a.51.51,0,0,0,.5-.48.56.56,0,0,0-.5-.5h-.11a.29.29,0,0,1-.28-.28v-8.25c0-.24.07-.37.21-.43a1.07,1.07,0,0,1,.57,0h.25a.86.86,0,0,0,.66-.23.79.79,0,0,0,.24-.54.92.92,0,0,0-.13-.44"/><path class="a" d="M178,239.38a3.72,3.72,0,0,0,2.91-3.75,3.79,3.79,0,0,0-3.81-3.77h-5a.49.49,0,0,0-.51.47.56.56,0,0,0,.51.5h.1a.25.25,0,0,1,.2.09.26.26,0,0,1,.09.19V242a.3.3,0,0,1-.29.28h-.1a.51.51,0,0,0-.51.5.55.55,0,0,0,.51.48l1.43,0a.73.73,0,0,0,.73-.7v-9.38a.28.28,0,0,1,.28-.29h2.56a2.51,2.51,0,0,1,2.15,2.74c0,1.57-.92,2.79-2.11,2.79H175.9c-.63,0-.66.49-.66.54a.78.78,0,0,0,.16.42l2.22,3.19a1.6,1.6,0,0,0,1.31.71h1.43a.48.48,0,0,0,.5-.48.56.56,0,0,0-.5-.5h-.6a.22.22,0,0,1-.2-.12l-1.7-2.37a.26.26,0,0,1,0-.25.25.25,0,0,1,.2-.18"/><rect class="a" x="11.01" y="260.7" width="217.58" height="1.52"/><path class="a" d="M80.87,285.24a39.69,39.69,0,0,0-.23-5.59c.29,0,.76,0,1.14,0,1,0,2-.06,3.18-.06,3.58,0,4.41,1.9,4.41,3.37a3.41,3.41,0,0,1-1.9,3c1.84.56,3.22,1.82,3.22,3.86,0,2.36-1.82,4.45-5.44,4.45-1.39,0-2.61-.11-3-.13s-1.18,0-1.55,0c.1-.82.17-3.11.17-5.61v-3.42m2.4.29a.12.12,0,0,0,.08.12c.35.06,1.68.06,1.93.06a1.44,1.44,0,0,0,.9-.19,2.5,2.5,0,0,0,1-2c0-1.45-.9-2.46-2.74-2.46a4.49,4.49,0,0,0-1.08.07.16.16,0,0,0-.06.12ZM87.08,288a3.53,3.53,0,0,0-2.31-.8H83.33a.14.14,0,0,0-.06.08v1.38a37.24,37.24,0,0,0,.08,3.79,3.13,3.13,0,0,0,2,.43,2.59,2.59,0,0,0,2.79-2.69A2.52,2.52,0,0,0,87.08,288Z"/><path class="a" d="M96.07,288.81a1.93,1.93,0,0,0-.27-1.05c-.82-1.53-2.54-4.43-3-5.05a21.78,21.78,0,0,0-2.24-3.06c.37,0,.73,0,1.36,0a16.66,16.66,0,0,0,2-.08A19.41,19.41,0,0,0,95,281.86c.32.52,2.25,4,2.64,4.57.93-1.61,2.35-4.31,2.83-5.18a13,13,0,0,0,.73-1.6c.22,0,.58,0,.87,0,.87,0,1.51,0,1.68-.06a22.49,22.49,0,0,0-1.93,2.79,53.91,53.91,0,0,0-3.08,5.52,2.24,2.24,0,0,0-.19.93c0,2.32.08,4.5.17,5.38-.21,0-.6,0-1.2,0a14.77,14.77,0,0,0-1.61.07,49.78,49.78,0,0,0,.2-5.48"/><path class="a" d="M108.79,287.07a7.44,7.44,0,0,1,7.82-7.72c4.67,0,7.56,3.28,7.56,7.23,0,4.44-2.92,8-7.81,8a7.24,7.24,0,0,1-7.57-7.48m12.62.11c0-3.44-2-6.32-5.28-6.32-2.74,0-4.59,2.08-4.59,5.63s2,6.53,5.32,6.53C118.74,293,121.41,291.76,121.41,287.18Z"/><path class="a" d="M127,285.24a28.92,28.92,0,0,0-.29-5.59c.45,0,.79,0,1.2,0s2.12-.08,2.91-.08a7.34,7.34,0,0,1,3.62.7,3.72,3.72,0,0,1,1.84,3.23,4.72,4.72,0,0,1-2.39,4,54.39,54.39,0,0,0,3.77,4.94,8.64,8.64,0,0,0,1.87,1.71,6.4,6.4,0,0,1-1.72.15,2.91,2.91,0,0,1-2.42-1,52,52,0,0,1-3.53-4.82.25.25,0,0,0-.23-.14h-2.19c-.06,0-.08,0-.08.11V289a41.7,41.7,0,0,0,.23,5.25c-.25,0-.71,0-1.17,0a15,15,0,0,0-1.65.07c.1-.83.23-3.16.23-5.63v-3.42m2.36,1.32c0,.16,0,.16.08.22a10.69,10.69,0,0,0,2.11.17,2,2,0,0,0,1.06-.21,3.11,3.11,0,0,0,1.26-2.6,2.94,2.94,0,0,0-3.21-3.08,7,7,0,0,0-1.22.07c-.06,0-.08.07-.08.14Z"/><path class="a" d="M141.14,285.24a39.92,39.92,0,0,0-.21-5.59,7.9,7.9,0,0,0,1.16,0,9.55,9.55,0,0,0,1.67-.08c-.08.75-.18,2.87-.18,5.63v3.42a45.89,45.89,0,0,0,.21,5.59c-.21,0-.67,0-1.2,0a13.14,13.14,0,0,0-1.62.07c.1-.77.17-3.13.17-5.63v-3.42"/><path class="a" d="M147.56,294.22a14.22,14.22,0,0,0-1.6.07c.37-.44,1.24-1.53,2.46-3.33l2.77-4.18-2.58-4.15a13.92,13.92,0,0,0-2.25-3c.53,0,1.15,0,1.79,0a8.93,8.93,0,0,0,1.49-.08,54.88,54.88,0,0,0,3.08,5.33c.56-.82,1.45-2.23,1.66-2.6a17.26,17.26,0,0,0,1.44-2.69,8.67,8.67,0,0,0,1,0c.76,0,1.49-.06,1.72-.08a24.07,24.07,0,0,0-2.06,2.67l-2.81,4c.56,1,1.53,2.58,2.35,3.86a27.6,27.6,0,0,0,3,4.08,14.41,14.41,0,0,0-1.51,0c-.52,0-1.71,0-2,.07-.12-.33-1-2-1.2-2.4l-2.08-3.68L149.89,292c-.58,1-1.07,2-1.22,2.3-.25,0-.58,0-1.11,0"/></svg>