<svg xmlns="http://www.w3.org/2000/svg" viewBox="0 0 170 180"><defs><style>.a,.b{fill:#fff;}.b{fill-rule:evenodd;}</style></defs><title>modal_logo</title><rect class="a" x="6.36" y="155.53" width="157.28" height="1.1"/><path class="b" d="M149.55,49.89c0-9.94-4.59-17.34-7.76-17.34-2.76,0-4.6,2.31-7,6.47-2.18,3.72-4.09,7.89-7.89,7s-6.15-6.7-8.22-11.63c-4-9.61-5.84-13.3-9-13.3-3.39,0-5.71,3.52-9.78,12.71C97.4,39.4,95,45.45,91.78,45.45c-3,0-5-2.93-8.27-7.21-2-2.68-3.75-4.42-5.64-4.44-2.2,0-4.15,1.85-6.11,5-3.75,5.92-5.65,9.87-9.06,9.87-3.11,0-4.94-3.42-7.61-9.84-.91-2.19-2.23-5.75-3.57-8.4C50.26,27.9,48.81,26,46.82,26c-3.4,0-5.48,5.28-7.66,11.5-1.33,3.82-2.3,9.77-6.6,9.77s-5.49-5.08-8.74-5.08-5.53,4.48-5.47,10.46c.09,9.07,3.23,11.4,5.51,11.4s3.58-2,5.23-3.85,2.48-2.86,4.09-2.86,3.08,1.11,4.28,5.22c.75,2.55,2.22,7.59,3.38,10.79,1.67,4.64,4.23,6.46,6.08,6.43s3.55-1.61,5.64-6.27c1.91-4.26,3.15-7.83,4.35-10.56s3.08-5.47,5.81-5.47,4.93,2,7.54,7.27c3.58,7.14,5.83,8.71,8.13,8.71,2.75,0,4.48-3.71,7.32-10.61C88,57.39,89.21,53.71,92,54c3.39.34,5.3,8.17,6.61,12.75,1.8,6.24,5.64,21.84,11.43,21.84,5.15,0,8.51-15.86,11.53-27.18,1.7-6.38,4.78-7.31,6.21-7.31,3.25,0,4.75,4.31,7,8.81,1.92,3.82,3.2,5.51,5.78,5.51,4,0,9-7.06,9-18.53"/><path class="b" d="M82,25.63a4.25,4.25,0,1,1-4.25-4.25A4.25,4.25,0,0,1,82,25.63"/><path class="b" d="M116.77,7.42c0,4.43-3.77,8.86-7.08,8.86s-7.08-4.51-7.08-8.86a7.09,7.09,0,1,1,14.16,0"/><path class="a" d="M112.16,108.57l1.69,0c.64,0,1.37,0,2,0,.88,0,1.24-.16,1.24-.57s-.85-.82-1.2-.82a3.21,3.21,0,0,0-.85.27l-.06,0-.14,0-.12,0a4.16,4.16,0,0,1-.9.1h-.07a.29.29,0,0,1-.18-.07.25.25,0,0,1-.08-.18v-.78c0-1.13.09-2.22.14-2.93s-.81-1.21-1.37-1.21a.71.71,0,0,0-.58.24,1.22,1.22,0,0,0-.19,1s0,2.51.07,3.74a.26.26,0,0,1-.25.26l-1.09,0h0l-.78,0H109l-.18,0-.14,0h0l-.39,0a.26.26,0,0,0-.27.27,1.15,1.15,0,0,0,1,.88,5.73,5.73,0,0,0,.64-.09l.15,0h0a.28.28,0,0,1,.16,0,.32.32,0,0,1,.1.18c0,.11,0,.24,0,.42,0,10.77-1.7,14.12-3.29,16.4-.12.16-.14.22-.14.32a.26.26,0,0,0,.24.27h0a5.78,5.78,0,0,0,1.8-1.72c2.2-3.49,2.77-6.9,3-11.29a.25.25,0,0,1,.09-.19.26.26,0,0,1,.19,0h.12l.7,0,.63-.05a.23.23,0,0,1,.19.07.27.27,0,0,1,.08.19,42.54,42.54,0,0,1-.87,9.32c-.34,1.37-.78,1.56-1.19,1.56a3.87,3.87,0,0,1-.57-.07,3.26,3.26,0,0,0-.53-.09c-.27,0-.3.17-.3.27,0,.27.79,2,2.25,2,.65,0,1.22-.47,1.74-1.46s1-2.93,1.28-8.08c0-.3,0-.65,0-1v-.4a11.07,11.07,0,0,1,.08-1.44,4.52,4.52,0,0,1,.14-.59,1,1,0,0,0-.15-.9,1.33,1.33,0,0,0-1-.58,1.1,1.1,0,0,0-.61.15,1,1,0,0,1-.55.09h-1.52a.23.23,0,0,1-.18-.08.22.22,0,0,1-.07-.19v-.27c0-.8.1-2.13.1-2.51v-.1a.24.24,0,0,1,.07-.2.26.26,0,0,1,.18-.09"/><path class="a" d="M128.73,117.86c0-.45-.89-1-1.24-1a2.81,2.81,0,0,0-.73.23l-.12,0-.21.08a5.56,5.56,0,0,1-1.39.14l-1.43.05a.33.33,0,0,1-.2-.09.22.22,0,0,1-.06-.2l.06-.71c.1-1,.21-2.13.19-2.66a2.45,2.45,0,0,0,0-.27.24.24,0,0,1,0-.2.21.21,0,0,1,.18-.09l.85-.06,1.06,0h.08l1,0H127c.68,0,.77-.09.77-.39s-.81-1-1.22-1a3.36,3.36,0,0,0-.81.27l-.22.08a8,8,0,0,1-1.66.16l-2.31,0a.27.27,0,0,1-.22-.12.25.25,0,0,1,0-.25l0-.06a2.27,2.27,0,0,1,.25-.38,1.88,1.88,0,0,0,.41-1.12c0-1-1.51-1-1.52-1-.23,0-.28.06-.31.78a16.83,16.83,0,0,1-1.88,4.65,2.79,2.79,0,0,1-.16.28l-.11.19a2.65,2.65,0,0,0-.36.71.23.23,0,0,0,.24.22,9.64,9.64,0,0,0,2.61-2.76.29.29,0,0,1,.25-.12,3.15,3.15,0,0,0,.5,0,.3.3,0,0,1,.2.05.27.27,0,0,1,.1.17,4.07,4.07,0,0,1,0,.41,23.93,23.93,0,0,1-.24,3.36.23.23,0,0,1-.24.21l-2.27.1h-1.12l-.36,0h-.09l-.4,0a.26.26,0,0,0-.27.28,1.15,1.15,0,0,0,1,.87l1-.07c.48-.05.9-.08,1.06-.08l1.13,0h0a.29.29,0,0,1,.2.09.26.26,0,0,1,.06.22c-.47,2.81-1.55,4.69-4.67,7-.15.09-.22.18-.22.3a.25.25,0,0,0,.24.26h0a9.6,9.6,0,0,0,2.15-1.1,9.46,9.46,0,0,0,4.44-6.54.26.26,0,0,1,.24-.21l2.12-.09c.68,0,1.41,0,2.11,0s1.15-.07,1.15-.42"/><path class="a" d="M130,125.09a15.75,15.75,0,0,1-5.71-4.61c-.1-.16-.24-.26-.34-.23s-.15.16-.12.35a7.38,7.38,0,0,0,1.1,2.44c1.09,1.73,2.08,2.8,2.91,3a2.67,2.67,0,0,0,.64.07c.85,0,1.78-.4,1.86-.7v0c0-.11-.07-.16-.34-.31"/><path class="a" d="M120.43,108l.88,0c.35,0,.7-.05.88-.05l3.29-.1h2c.89,0,1.25-.16,1.25-.57s-1.11-.86-1.39-.86a4.88,4.88,0,0,0-.89.29,4.35,4.35,0,0,1-1.59.22l-3.56.08H121a.26.26,0,0,1-.23-.12.27.27,0,0,1,0-.26c.14-.25.3-.55.45-.8l.07-.17a3.84,3.84,0,0,0,.69-1.75,1.53,1.53,0,0,0-1.71-1.31l-.26,0a.27.27,0,0,0-.25.3s0,.17,0,.29l0,.22v.07c0,.32-.51,2.89-2.8,7.43l0,.08a.34.34,0,0,0-.08.18.22.22,0,0,0,.23.22h0a7.46,7.46,0,0,0,2.82-3.26.26.26,0,0,1,.29-.13l.22,0"/><path class="a" d="M59.4,113.35c-.2-.17-1-.91-1-.91a.34.34,0,0,1,0-.46c.6-.74,2.45-3.8,2.45-3.8a13.32,13.32,0,0,0,.8-1.44l.09-.17A5.18,5.18,0,0,1,62,106a1.24,1.24,0,0,0,0-1.21,1.44,1.44,0,0,0-1.59-.59,1.34,1.34,0,0,0-.32.11l-.24.1a3,3,0,0,1-1.07.27l-2,0H55.6a.27.27,0,0,1-.25-.23,1.15,1.15,0,0,0-1.31-.86c-.32.09-.68.46-.68,1.26l.11,5.42V111c0,2.4,0,6,0,8.29,0,.31-.05,1-.09,1.94l0,.27c-.08,1.62-.17,3.25-.17,3.83a1.28,1.28,0,0,0,1.09,1.06,1.36,1.36,0,0,0,1.21-1.24c0-.19,0-1,0-1.16,0-3.68-.07-6.48-.07-11.88V108.3s0,0,0-.07a.71.71,0,0,0,0-.21l0-2.18a.25.25,0,0,1,.08-.18.26.26,0,0,1,.19-.07h.06l1,0,1.13,0,1.64,0a.29.29,0,0,1,.21.11.24.24,0,0,1,0,.23,34.56,34.56,0,0,1-2.22,6.15l-.07.15a.42.42,0,0,0-.08.21c0,.13.07.19.26.38a9.19,9.19,0,0,1,2.71,5.76,3.69,3.69,0,0,1-.51,2,1.51,1.51,0,0,1-1.46.71l-.73-.07-.67-.06a.25.25,0,0,0-.19.07s-.07.07-.07.23a3.65,3.65,0,0,0,2.37,1.56,4.11,4.11,0,0,0,3.35-4.22c0-2.6-2-4.39-3-5.35"/><path class="a" d="M51.1,112c.79,0,1.13-.13,1.13-.44s-.91-1-1.33-1a3.45,3.45,0,0,0-.77.26l-.15.06-.2.07a1.59,1.59,0,0,1-.33.09.26.26,0,0,1-.27-.12.28.28,0,0,1,0-.29,28,28,0,0,0,2.54-4.22c.17-.32.28-.54.35-.69a1.13,1.13,0,0,0,.18-.5,1.25,1.25,0,0,0-.34-1,1.86,1.86,0,0,0-1.17-.53.29.29,0,0,0-.31.32.31.31,0,0,0,0,.08l0,.17a.75.75,0,0,1,0,.12,11.12,11.12,0,0,1-1.21,2.86.25.25,0,0,1-.21.13.26.26,0,0,1-.23-.11,1.54,1.54,0,0,0-1-.59,2.71,2.71,0,0,0-.55.16.23.23,0,0,1-.23,0,.26.26,0,0,1-.11-.21V104a1.37,1.37,0,0,0-1.24-1.22.66.66,0,0,0-.52.2,1.32,1.32,0,0,0-.24,1v3a.25.25,0,0,1-.24.25l-.76.06H42.42l-.2,0-.23,0c-.26,0-.35.14-.35.26a1.15,1.15,0,0,0,1,.82c.16,0,.46,0,.76-.06l.26,0c.31,0,.56,0,.7,0h.23a.26.26,0,0,1,.19.07.27.27,0,0,1,.08.19l0,2.54a.25.25,0,0,1-.24.26l-2.26.07c-.36,0-.77,0-1.15,0l-.24,0-.15,0-.49,0a.27.27,0,0,0-.26.27c0,.18.45.93,1,.93.17,0,.61-.05,1.23-.11s1.16-.1,1.37-.1l1.92,0a.24.24,0,0,1,.23.14.24.24,0,0,1,0,.27,21.47,21.47,0,0,1-2.24,2.55l-.69.62a20.2,20.2,0,0,1-2,1.88l-.21.19-1.11,1,0,0a.24.24,0,0,0-.09.18.26.26,0,0,0,.26.27,10.62,10.62,0,0,0,2.62-1.89.29.29,0,0,1,.18-.07l.1,0a.27.27,0,0,1,.15.22c0,.82,0,1.67,0,2.42s0,2.58-.12,4.08c0,.65.38,1.26.82,1.26a1.25,1.25,0,0,0,1.18-.9.27.27,0,0,1,.25-.22l3.5-.13a.26.26,0,0,1,.26.19,1.06,1.06,0,0,0,.34.5.82.82,0,0,0,.61.27,1.05,1.05,0,0,0,1.09-.82c0-.12,0-.64,0-1.43v-.21c0-.32,0-.61,0-.74,0-2.41.08-3.75.1-4.39,0-.22,0-.35,0-.43a5.26,5.26,0,0,1,.07-.63.69.69,0,0,0,0-.16,1,1,0,0,0-.25-.8,1.52,1.52,0,0,0-1.7-.26,2.14,2.14,0,0,1-.78.14l-2.54,0a.28.28,0,0,1-.24-.16.26.26,0,0,1,.07-.29,17.79,17.79,0,0,0,2.52-2.68.25.25,0,0,1,.17-.1l.39,0Zm-2.89,7.25a1.11,1.11,0,0,0-.77-.42,2.6,2.6,0,0,0-.59.11l-.15,0-.3,0a4,4,0,0,1-.86.07h-.48a.28.28,0,0,1-.18-.06.27.27,0,0,1-.08-.18c0-.93,0-1.73,0-2.33a.25.25,0,0,1,.25-.25l.68,0,.31,0c.33,0,.6,0,.73,0l1.8,0a.26.26,0,0,1,.19.07.25.25,0,0,1,.07.19c0,.71,0,1.7,0,2.7v.72c0,1.16,0,2.27,0,2.93a.26.26,0,0,1-.32.25,2.21,2.21,0,0,0-.81,0c-.15,0-.41,0-.52,0l-.51,0c-.26,0-.51,0-.82,0l-.75,0h0a.27.27,0,0,1-.17-.08.23.23,0,0,1-.09-.18l0-2.63a.25.25,0,0,1,.25-.25l2.51-.14c.25,0,.58,0,.7-.25a.5.5,0,0,0,0-.43m-.9-8.71a.26.26,0,0,1-.21.11H47a.25.25,0,0,1-.18-.24v-2.08a.26.26,0,0,1,.24-.26h.67a2.94,2.94,0,0,0,.63,0,.27.27,0,0,1,.27.1.26.26,0,0,1,0,.28c-.42.7-.88,1.43-1.36,2.16"/><path class="a" d="M73.37,123.48l.08,0c4.75-3.75,7.32-9.2,8.17-11a5.54,5.54,0,0,1,.44-.75,2.06,2.06,0,0,0,.38-.88,1.16,1.16,0,0,0-.9-1.13,1.86,1.86,0,0,0-.34,0,2.86,2.86,0,0,0-1.09.26,2.75,2.75,0,0,1-1,.11l-4.09.07h-.39l-.47,0a.26.26,0,0,0-.28.27,1.19,1.19,0,0,0,1,.85c.15,0,.58,0,1-.07S76.88,111,77,111l2.57,0h0a.28.28,0,0,1,.21.1.28.28,0,0,1,0,.23A30.83,30.83,0,0,1,74,122l-.14.15c-1,1-1,1.17-1,1.23a.26.26,0,0,0,.23.27v0c.1,0,.14,0,.3-.15"/><path class="a" d="M96.68,122.08A24.11,24.11,0,0,1,88.52,113a.23.23,0,0,1,0-.2.29.29,0,0,1,.14-.15A24.84,24.84,0,0,0,92.92,110c.65-.5,1-.87,1.06-1.17a1.56,1.56,0,0,0-.31-1.39,1.29,1.29,0,0,0-.86-.54H92.7c-.12,0-.17.13-.31.37l-.18.33-.13.2-.07.12-.07.1a23.06,23.06,0,0,1-3.53,3.89.28.28,0,0,1-.23.07.29.29,0,0,1-.19-.15,14.61,14.61,0,0,1-.65-1.61c-.07-.2-.19-.45-.4-.45a.23.23,0,0,0-.18.09.38.38,0,0,0-.09.3,20,20,0,0,0,4.18,9.7l.19.26c.67.91,2.07,2.82,3.14,3.06a3.4,3.4,0,0,0,2.77-.64l0-.11c0-.13-.07-.18-.3-.34"/><path class="a" d="M152.83,109.38a.72.72,0,0,0,.21-.16,2.67,2.67,0,0,0,.4-1.81.27.27,0,0,1,.09-.2.32.32,0,0,1,.21-.06.65.65,0,0,0,.2,0l.37,0,1.7-.06,4.46-.13a.3.3,0,0,1,.24.12.26.26,0,0,1,.06.25l-.08.26a5.71,5.71,0,0,0-.26.82v0a.32.32,0,0,0,.3.23,13.85,13.85,0,0,0,2.44-1c.28-.19.49-.35.46-.64a1,1,0,0,0-.33-.6,3.17,3.17,0,0,0-1.86-.54,2.66,2.66,0,0,0-.65.19,1.26,1.26,0,0,1-.3.09,4.06,4.06,0,0,1-.84.08l-1.16,0a.28.28,0,0,1-.26-.25v-.27c0-1.16.12-2,.15-2.35v0a1.54,1.54,0,0,0-1.37-1.2.64.64,0,0,0-.51.22,1.42,1.42,0,0,0-.26,1c0,.13.06,1.84.08,2.65a.26.26,0,0,1-.25.26l-1.9.08h-.63a.26.26,0,0,1-.24-.17c-.08-.24-.17-.28-.31-.28s-.2,0-.26.34a2.5,2.5,0,0,1-.61,1.47l-.23.3a1.46,1.46,0,0,0-.21.36,1,1,0,0,0-.06.2.69.69,0,0,0,.13.58.93.93,0,0,0,.69.33,1.64,1.64,0,0,0,.39-.09m-.23.55a.33.33,0,0,0-.13.24,2.08,2.08,0,0,0,.06.32v.06c0,.09.06.26.07.32,0,.59,0,2.56,0,3,0,.86,0,3.68-.06,5.36-.05,3.12-.07,5.09-.07,5.86a1,1,0,0,0,.92.93,1.11,1.11,0,0,0,1.1-1,.27.27,0,0,1,.25-.21l5.16-.17a.28.28,0,0,1,.27.22,1,1,0,0,0,.28.59.77.77,0,0,0,.62.22,1.17,1.17,0,0,0,1.08-1.29c0-.72.12-4.08.12-4.19a6.44,6.44,0,0,1,.16-.82.91.91,0,0,0-.14-.77,1.23,1.23,0,0,0-1-.44,5.12,5.12,0,0,0-1,.29,2.8,2.8,0,0,1-.88.09l-3.29.1c-.42,0-.88,0-1.26,0a.27.27,0,0,1-.25-.26l0-2.12a.25.25,0,0,1,.25-.26l4.52-.15a.24.24,0,0,1,.25.19,1,1,0,0,0,.23.42.92.92,0,0,0,.66.27,1.18,1.18,0,0,0,1-1.31c0-.26.05-3,.07-3.27a4.18,4.18,0,0,1,.14-1l0-.13a1,1,0,0,0-.2-.89,1.21,1.21,0,0,0-1.17-.36l-.48.15-.32.09a1.78,1.78,0,0,1-.71.09l-3,.08H154.4a.27.27,0,0,1-.12,0,4.84,4.84,0,0,0-1.35-.34.66.66,0,0,0-.33.07m2.06,9.76a.25.25,0,0,1,.22,0,1.06,1.06,0,0,0,.25,0l1,0h.15l.72,0,3.11-.08a.26.26,0,0,1,.19.07.23.23,0,0,1,.08.17c0,.25,0,.62,0,1.41l-.1,2.28a.24.24,0,0,1-.23.24c-.57.06-1.53.15-1.84.15l-3.28.09h0a.25.25,0,0,1-.18-.08.23.23,0,0,1-.08-.18l0-3.76a.24.24,0,0,1,.09-.21m0-8.23a.24.24,0,0,1,.26-.24H155l.77,0H156l.84,0,2.63-.07a.3.3,0,0,1,.18.08.25.25,0,0,1,.08.18c0,.51,0,1.07,0,1.78l-.06,1.54a.21.21,0,0,1-.09.18.26.26,0,0,1-.18.07h-.14l-.31,0c-.49,0-1.66.15-1.95.15l-2.06.07h0a.29.29,0,0,1-.19-.08.29.29,0,0,1-.07-.18c0-.94,0-2.07,0-3.4"/><path class="a" d="M143.73,125.59c1.17-.22,2.55-1.27,4.92-2.86a.26.26,0,0,1,.38.12c.05.12.1.26.14.37l.11.31a3.31,3.31,0,0,0,.12.33,1.12,1.12,0,0,0,1,.52c.23,0,.68-.21.68-.91,0-1.66-2.52-3.4-2.86-3.53s-.56.14-.33.47a7.24,7.24,0,0,1,.72,1.33.34.34,0,0,1,0,.2.21.21,0,0,1-.15.14l-2.71,1a.26.26,0,0,1-.24,0,.25.25,0,0,1-.11-.21l0-4.63a.26.26,0,0,1,.25-.26l3-.11a.24.24,0,0,1,.25.15.88.88,0,0,0,.85.54,1.12,1.12,0,0,0,1.06-1.06c0-.29,0-.94,0-1.68v-.49c0-1.12,0-2.08,0-2.34a9.3,9.3,0,0,1,.1-1.17l0-.13a1,1,0,0,0-.16-.82,1.1,1.1,0,0,0-.87-.35,1.84,1.84,0,0,0-.82.2c-.1.07-.14.07-.52.09h-.1a.25.25,0,0,1-.27-.24v-.16c0-.15,0-.5.05-.87v-.12c0-.36.05-.71.05-.86,0-.61-1.51-.89-2.06-.93a.25.25,0,0,1-.22-.14.27.27,0,0,1,0-.26c.41-.6.8-1.22,1.16-1.84a.22.22,0,0,1,.19-.13.25.25,0,0,1,.23.09,6.55,6.55,0,0,1,1.12,2l0,.06a11,11,0,0,0,.45,1,1.16,1.16,0,0,0,1,.71.79.79,0,0,0,.63-.56l.06-.19c0-.06,0-.12,0-.19,0-.72-1.15-2.26-3-3.48a.27.27,0,0,1-.09-.34,1,1,0,0,0,.13-.4,1.26,1.26,0,0,0-.33-1,1.84,1.84,0,0,0-1.18-.51c-.23,0-.3.24-.35.43a11.26,11.26,0,0,1-.34,1.5,22.81,22.81,0,0,1-4.25,7.3.56.56,0,0,0,0,.13.26.26,0,0,0,.23.27h.06l0,0s.45-.36,1.14-1a.26.26,0,0,1,.26-.07.28.28,0,0,1,.18.2,1.22,1.22,0,0,1,0,.22c.09,1.3.07,3.17.07,12.22a.25.25,0,0,1-.18.25.89.89,0,0,0-.65.88,1,1,0,0,0,1.06.89m5.12-9a.25.25,0,0,1-.25.24l-.23,0h-.1c-.64.06-1.41.14-1.65.14l-1,0h0a.25.25,0,0,1-.18-.08.24.24,0,0,1-.07-.18l0-1.61a.27.27,0,0,1,.25-.27l2.55-.09.48,0a.26.26,0,0,1,.2.07.23.23,0,0,1,.07.19Zm-1.24-4.83,1,0a.29.29,0,0,1,.18.07.34.34,0,0,1,.09.19v1.56a.26.26,0,0,1-.13.22c-.08,0-1.92.15-1.92.15a1.69,1.69,0,0,1-.43,0h-.83a.26.26,0,0,1-.26-.25c0-.63,0-1.35,0-1.63a.27.27,0,0,1,.1-.19.29.29,0,0,1,.21,0l.21,0,.9,0,.84,0m-1.47-3.31,0,.06a4.51,4.51,0,0,1,.13,1.34v.75a.25.25,0,0,1-.24.26l-.67,0H145a.37.37,0,0,1-.19-.07,2.72,2.72,0,0,0-.82-.4.24.24,0,0,1-.17-.18.26.26,0,0,1,0-.24,22.36,22.36,0,0,0,1.59-2,.3.3,0,0,1,.25-.1.28.28,0,0,1,.21.17,2.29,2.29,0,0,0,.18.38"/><path class="a" d="M84.38,102.63a.71.71,0,0,0-.58.22,1.24,1.24,0,0,0-.19,1c0,.23.07,2.29.08,8.75,0,3.18-.08,9.92-.15,10.49s-.12.57-.21.65l0,0a.54.54,0,0,1-.28,0l-.5,0-.28,0-.38,0a.27.27,0,0,0-.19.08s-.08.1-.07.26,1.16,1.92,2.1,2a1.69,1.69,0,0,0,1.36-.62,3.31,3.31,0,0,0,.64-2.18c0-.45,0-1.43,0-2.63l0-2.22c0-2.2,0-4.45,0-5.28V113c0-3.86.09-6.73.13-8.1l0-.25a.54.54,0,0,0,0-.18v-.6a1.54,1.54,0,0,0-1.37-1.22"/><path class="a" d="M18.05,116.41l3.06-.13a.26.26,0,0,1,.24.13.38.38,0,0,0,.11.14,1.07,1.07,0,0,0,.8.36,1.29,1.29,0,0,0,1.15-1.34v-3.83a3.28,3.28,0,0,1,.09-.91,1.1,1.1,0,0,0-.18-1,1.26,1.26,0,0,0-1.06-.53,2.57,2.57,0,0,0-.8.18,1.25,1.25,0,0,0-.27.08,5.05,5.05,0,0,1-1.05.09l-6.33.16a16,16,0,0,1-1.87,0,1.85,1.85,0,0,1-.67-.25,1.59,1.59,0,0,0-.86-.24.58.58,0,0,0-.37.23.66.66,0,0,0-.11.46,4.28,4.28,0,0,1,.06.53,19.62,19.62,0,0,1,0,2.41v.5c0,.22,0,.83,0,1.43V115c0,.53,0,1.14,0,1.3a1.09,1.09,0,0,0,1,1,1.26,1.26,0,0,0,1-.62.27.27,0,0,1,.22-.14l3.38-.11a.26.26,0,0,1,.19.07.27.27,0,0,1,.08.19c0,6.07,0,6.52-.1,6.92-.11.71-.28.79-.88.79a5.74,5.74,0,0,1-.61-.1,3.42,3.42,0,0,0-.57-.09.26.26,0,0,0-.28.26c0,.36,1.23,2.12,2.18,2.21a1.86,1.86,0,0,0,1.56-.82,4.18,4.18,0,0,0,.72-2.58c0-.28,0-.86,0-1.54l0-2.69c0-.56,0-1,0-1.22v-.24c0-.26,0-.65,0-.7a.6.6,0,0,0,0-.19.26.26,0,0,1,.07-.19.27.27,0,0,1,.18-.08m-5.77-.86h0a.26.26,0,0,1-.26-.25c0-.31,0-.74,0-1.19V114c0-.79,0-1.58,0-1.87s0-.69,0-1a.24.24,0,0,1,.09-.18.32.32,0,0,1,.2-.06h.12l.58,0,1,0,.62,0,6.54-.16a.26.26,0,0,1,.19.07.23.23,0,0,1,.07.18c0,.52,0,1.33,0,2.07v.86c0,.44,0,.85,0,1.16a.25.25,0,0,1-.25.25l-.88.1c-.47,0-1.11.06-1.73.08Z"/><path class="a" d="M20.85,118.87a.26.26,0,0,0-.27.23l0,.12a6.33,6.33,0,0,0,.61.69l.1.12a8.37,8.37,0,0,1,1.45,2.29l.26.56c.23.45.46.92.72,1.42.49.93,1,1.06,1.26,1.08h.09a1.2,1.2,0,0,0,1.06-1.06,3.94,3.94,0,0,0-1.23-2.46,10.13,10.13,0,0,0-4.07-3"/><path class="a" d="M25.22,105.58a4.11,4.11,0,0,0-.93.32,5.37,5.37,0,0,1-.51.19,18.67,18.67,0,0,1-3.18.26l-2.59.06a.32.32,0,0,1-.19-.07.26.26,0,0,1-.07-.19v-2.54a1.53,1.53,0,0,0-1.38-1.22.75.75,0,0,0-.55.21,1.25,1.25,0,0,0-.21,1v2.58a.26.26,0,0,1-.25.26l-4.46.14c-1.4,0-2.15,0-2.68,0H7.8c-.24,0-.84-.13-1-.13a.27.27,0,0,0-.26.27,1.47,1.47,0,0,0,1.19,1l.35,0,.42,0,.42,0c.57,0,2.08-.12,2.43-.12l11.22-.28h3c1,0,1.3-.06,1.3-.44,0-.59-1.29-1.24-1.63-1.24"/><path class="a" d="M11.06,118.81c-.19,0-.31.15-.41.49a4.44,4.44,0,0,1-.74,1.61l-.14.19a16.13,16.13,0,0,1-1,1.31c-.14.15-.26.31-.39.46-.34.4-.65.77-1,1.16l-.2.2c-.14.16-.28.31-.43.46l-.1.1-.11.12c-.23.2-.18.33-.17.37a.24.24,0,0,0,.23.14.26.26,0,0,0,.09,0,7.39,7.39,0,0,0,1.42-.79l.08,0a22.37,22.37,0,0,0,2.57-2l.3-.26c1-.87,1.69-1.47,1.77-1.78a1,1,0,0,0-.17-.81,2.68,2.68,0,0,0-1.6-.91"/><path class="a" d="M15.93,142.25h-.41a.21.21,0,0,1-.16-.08l-3-3.92a.2.2,0,0,1,0-.26l1.27-1.45a2,2,0,0,1,1.25-.71,1.12,1.12,0,0,0,.55-.11.63.63,0,0,0-.32-1.17,1.07,1.07,0,0,0-.52.15,3.71,3.71,0,0,0-.56.42,1.8,1.8,0,0,1-.2.18c-.26.23-.69.69-.88.88l-1.83,2a.43.43,0,0,0,0,.56l2.9,3.76a.89.89,0,0,0,.79.42h1.17a.36.36,0,0,0,.36-.35.39.39,0,0,0-.36-.35"/><path class="a" d="M9.73,134.69H8.53a.35.35,0,0,0-.36.34.4.4,0,0,0,.36.36h.23a.2.2,0,0,1,.14.06.18.18,0,0,1,.06.14V142a.2.2,0,0,1-.19.21H8.68a.34.34,0,0,0-.36.35.39.39,0,0,0,.36.35h1a.52.52,0,0,0,.53-.51V135.2a.57.57,0,0,0-.51-.51"/><path class="a" d="M26.86,134.55a1,1,0,0,0-.36.08,3.76,3.76,0,0,0-1.07,1,7.26,7.26,0,0,0-.54.82l-.79,1.38a.22.22,0,0,1-.17.1c-.11,0-.14,0-.18-.1L22.14,135a.63.63,0,0,0-.57-.35H20.15a.35.35,0,0,0-.36.34.4.4,0,0,0,.36.36h.59a.22.22,0,0,1,.18.1l2,3.42a.53.53,0,0,1,.06.24v2.89a.2.2,0,0,1-.2.2h-.08a.36.36,0,0,0-.36.35.38.38,0,0,0,.36.35h1a.58.58,0,0,0,.53-.51v-3.31a.49.49,0,0,1,.07-.25l1.31-2.2c.22-.41.65-.87,1.09-.87a.91.91,0,0,0,.46-.1.68.68,0,0,0,.32-.41.58.58,0,0,0-.09-.45.62.62,0,0,0-.54-.3"/><path class="a" d="M35.43,134.67a4.13,4.13,0,1,0,4.12,4.13,4.14,4.14,0,0,0-4.12-4.13m0,7.52c-1.54,0-2.79-1.52-2.79-3.39a3.13,3.13,0,0,1,2.79-3.38,3.45,3.45,0,0,1,0,6.77"/><path class="a" d="M50.73,134.7h-5a2.8,2.8,0,0,0-2.1.67.69.69,0,0,0-.14,1,.63.63,0,0,0,.46.19h.14a.56.56,0,0,0,.43-.42c.17-.61,1.14-.65,1.16-.65h1a.2.2,0,0,1,.2.21V142a.21.21,0,0,1-.2.21h-.09a.36.36,0,0,0-.36.35.39.39,0,0,0,.36.35h1a.53.53,0,0,0,.53-.51v-6.78a.2.2,0,0,1,.2-.21h2.34a.39.39,0,0,0,.38-.38.38.38,0,0,0-.38-.37"/><path class="a" d="M59.05,134.67a4.13,4.13,0,1,0,4.13,4.13,4.14,4.14,0,0,0-4.13-4.13m0,7.63c-1.51,0-2.78-1.6-2.78-3.5a3.13,3.13,0,0,1,2.78-3.38,3.13,3.13,0,0,1,2.81,3.38c0,1.9-1.28,3.5-2.81,3.5"/><path class="a" d="M117.91,142.25h-.18a.23.23,0,0,1-.19-.13l-2.93-7.2a.38.38,0,0,0-.36-.31.39.39,0,0,0-.36.28L111,142.12a.2.2,0,0,1-.18.13h-.16a.35.35,0,0,0-.35.35.38.38,0,0,0,.35.35h.55a.51.51,0,0,0,.44-.38l.87-2.23a.31.31,0,0,1,.28-.2h2.35a.32.32,0,0,1,.29.2l.8,1.91a1,1,0,0,0,.89.7h.81a.36.36,0,0,0,.36-.35.39.39,0,0,0-.36-.35m-3-2.93a.22.22,0,0,1-.17.09h-1.56a.22.22,0,0,1-.17-.09.19.19,0,0,1,0-.19l.78-1.95a.19.19,0,0,1,.19-.11.19.19,0,0,1,.19.11l.78,1.95a.21.21,0,0,1,0,.19"/><path class="a" d="M82.41,142.25h-.17a.22.22,0,0,1-.19-.13l-2.93-7.2a.38.38,0,0,0-.36-.31.4.4,0,0,0-.36.28l-2.92,7.23a.21.21,0,0,1-.18.13h-.16a.35.35,0,0,0-.35.35.38.38,0,0,0,.35.35h.54a.51.51,0,0,0,.45-.38l.86-2.23a.32.32,0,0,1,.3-.2h2.33a.32.32,0,0,1,.3.2l.8,1.91a1,1,0,0,0,.89.7h.8a.36.36,0,0,0,.36-.35.39.39,0,0,0-.36-.35m-3-2.93a.19.19,0,0,1-.16.09H77.68a.26.26,0,0,1-.18-.09.19.19,0,0,1,0-.19l.79-1.95a.17.17,0,0,1,.18-.11.2.2,0,0,1,.19.11l.78,1.95a.17.17,0,0,1,0,.19"/><path class="a" d="M92.07,142.58a4.11,4.11,0,1,0-2,.35h.28a2.07,2.07,0,0,1,1.22.64,2.19,2.19,0,0,0,1.49.68h0a2.08,2.08,0,0,0,1.32-.35.4.4,0,0,0,.14-.27.23.23,0,0,0-.22-.26h-.63a4.72,4.72,0,0,1-.63,0,2.56,2.56,0,0,1-1-.4.2.2,0,0,1-.09-.19.28.28,0,0,1,.12-.17m-1.68-7.16a3.13,3.13,0,0,1,2.79,3.38c0,1.87-1.25,3.4-2.79,3.4s-2.8-1.53-2.8-3.4a3.13,3.13,0,0,1,2.8-3.38"/><path class="a" d="M106.38,134.7h-1.06a.51.51,0,0,0-.52.51v4.4c0,1.56-.81,2.59-2.07,2.59s-2.08-1-2.08-2.63v-4.36a.57.57,0,0,0-.52-.51H99.1a.35.35,0,0,0-.36.34.4.4,0,0,0,.36.36h.08a.19.19,0,0,1,.19.2v4a3.19,3.19,0,0,0,3.37,3.37,3.22,3.22,0,0,0,3.37-3.37v-4a.2.2,0,0,1,.19-.2h.08a.36.36,0,0,0,.36-.36.38.38,0,0,0-.36-.34"/><path class="a" d="M148.68,134.7h-1.05a.53.53,0,0,0-.54.51v4.4c0,1.56-.81,2.59-2.06,2.59s-2.08-1-2.08-2.63v-4.36a.57.57,0,0,0-.53-.51h-1a.36.36,0,0,0-.37.34.41.41,0,0,0,.37.36h.07a.2.2,0,0,1,.2.2v4a3.37,3.37,0,1,0,6.73,0v-4a.19.19,0,0,1,.2-.2h.07A.36.36,0,0,0,149,135a.39.39,0,0,0-.36-.34"/><path class="a" d="M136.1,135.4h.09a.36.36,0,0,0,.36-.36.39.39,0,0,0-.36-.34h-1.86a.35.35,0,0,0-.36.34.4.4,0,0,0,.36.36h.07a.18.18,0,0,1,.15.07.15.15,0,0,1,.06.13V142a.21.21,0,0,1-.21.21h-.07a.36.36,0,0,0-.36.35.39.39,0,0,0,.36.35h1.86a.35.35,0,0,0,.36-.35.39.39,0,0,0-.36-.35h-.09a.27.27,0,0,1-.14-.07.2.2,0,0,1-.06-.14V135.6a.2.2,0,0,1,.2-.2"/><path class="a" d="M162.46,134.89a.75.75,0,0,0-.88-.24,3.11,3.11,0,0,0-1.66,1.43l-2.14,3a.25.25,0,0,1-.17.08.18.18,0,0,1-.17-.09l-2.62-4c-.17-.27-.31-.37-.53-.37h-.65a.36.36,0,0,0-.37.34.41.41,0,0,0,.37.36h.19a.17.17,0,0,1,.14.07.16.16,0,0,1,.06.14V142a.21.21,0,0,1-.2.21h-.17a.36.36,0,0,0-.36.35.39.39,0,0,0,.36.35h.57a.54.54,0,0,0,.54-.51V138.2a.21.21,0,0,1,.18-.19.22.22,0,0,1,.19.08l1.68,2.61a.56.56,0,0,0,.62.3.73.73,0,0,0,.31-.25l1.76-2.66a.21.21,0,0,1,.16-.1.22.22,0,0,1,.22.21l0,4.24a.57.57,0,0,0,.53.51h1.05a.38.38,0,0,0,.37-.35.4.4,0,0,0-.37-.35h-.08a.21.21,0,0,1-.2-.21v-6c0-.17,0-.27.15-.31a.69.69,0,0,1,.41,0h.19a.64.64,0,0,0,.47-.17.52.52,0,0,0,.17-.39.71.71,0,0,0-.09-.32"/><path class="a" d="M127.09,140.13a2.67,2.67,0,0,0,2.1-2.7,2.74,2.74,0,0,0-2.75-2.73h-3.61a.36.36,0,0,0-.37.34.41.41,0,0,0,.37.36h.07a.2.2,0,0,1,.15.06.18.18,0,0,1,.06.14V142a.22.22,0,0,1-.21.21h-.07a.36.36,0,0,0-.37.35.4.4,0,0,0,.37.35h1a.54.54,0,0,0,.53-.51v-6.77a.2.2,0,0,1,.2-.21h1.85a1.81,1.81,0,0,1,1.55,2c0,1.13-.67,2-1.52,2h-.93c-.46,0-.48.35-.48.39a.62.62,0,0,0,.12.3l1.6,2.31a1.18,1.18,0,0,0,.95.51h1a.34.34,0,0,0,.35-.35.39.39,0,0,0-.35-.35h-.44a.15.15,0,0,1-.14-.09L127,140.45a.21.21,0,0,1,0-.19.17.17,0,0,1,.15-.13"/><path class="a" d="M56.86,173.27a29.62,29.62,0,0,0-.17-4.05c.21,0,.54,0,.82,0,.72,0,1.42,0,2.3,0,2.59,0,3.19,1.37,3.19,2.44a2.45,2.45,0,0,1-1.37,2.19A2.9,2.9,0,0,1,64,176.63c0,1.71-1.31,3.23-3.93,3.23-1,0-1.89-.09-2.17-.1s-.85,0-1.12,0c.07-.6.13-2.26.13-4.06v-2.47m1.73.21a.08.08,0,0,0,.06.08,13.67,13.67,0,0,0,1.4.05,1,1,0,0,0,.64-.14,1.79,1.79,0,0,0,.7-1.45c0-1.05-.64-1.77-2-1.77a2.92,2.92,0,0,0-.78.05s0,0,0,.09Zm2.76,1.77a2.53,2.53,0,0,0-1.68-.58h-1s0,0,0,.06v1a25.42,25.42,0,0,0,.06,2.75,2.36,2.36,0,0,0,1.43.31,1.88,1.88,0,0,0,2-1.95,1.82,1.82,0,0,0-.74-1.58"/><path class="a" d="M67.84,175.84a1.42,1.42,0,0,0-.19-.75c-.59-1.11-1.84-3.2-2.17-3.66a17.56,17.56,0,0,0-1.63-2.21c.27,0,.53,0,1,0a10.68,10.68,0,0,0,1.42-.06,15,15,0,0,0,.79,1.63c.23.38,1.62,2.93,1.91,3.31.67-1.17,1.7-3.12,2-3.74a11.27,11.27,0,0,0,.53-1.17,5.92,5.92,0,0,0,.63,0c.63,0,1.09,0,1.22,0a17.33,17.33,0,0,0-1.4,2,39.5,39.5,0,0,0-2.23,4,1.67,1.67,0,0,0-.13.67c0,1.68,0,3.25.12,3.89-.16,0-.43,0-.87,0a9.8,9.8,0,0,0-1.16.05,37.27,37.27,0,0,0,.14-4"/><path class="a" d="M77,174.59A5.38,5.38,0,0,1,82.69,169a5.15,5.15,0,0,1,5.46,5.23A5.43,5.43,0,0,1,82.51,180,5.24,5.24,0,0,1,77,174.59m9.13.08c0-2.49-1.44-4.57-3.82-4.57-2,0-3.31,1.5-3.31,4.07s1.42,4.72,3.84,4.72c1.36,0,3.29-.91,3.29-4.22"/><path class="a" d="M90.22,173.27a20.72,20.72,0,0,0-.21-4.05l.87,0c.25,0,1.53-.06,2.1-.06a5.34,5.34,0,0,1,2.62.51A2.68,2.68,0,0,1,96.93,172a3.42,3.42,0,0,1-1.73,2.9,41.43,41.43,0,0,0,2.73,3.57,6,6,0,0,0,1.35,1.23,4.36,4.36,0,0,1-1.25.12,2.12,2.12,0,0,1-1.74-.73,40.05,40.05,0,0,1-2.56-3.49.17.17,0,0,0-.16-.1H92s-.06,0-.06.08V176a29.52,29.52,0,0,0,.17,3.79l-.85,0a9.94,9.94,0,0,0-1.19.05c.07-.6.16-2.28.16-4.07v-2.47m1.71.95c0,.12,0,.12.06.16a7.32,7.32,0,0,0,1.52.12,1.39,1.39,0,0,0,.77-.15,2.24,2.24,0,0,0,.91-1.88,2.12,2.12,0,0,0-2.32-2.22,4.72,4.72,0,0,0-.88.05s-.06,0-.06.1Z"/><path class="a" d="M100.42,173.27a28.4,28.4,0,0,0-.15-4.05,5.22,5.22,0,0,0,.84,0,6,6,0,0,0,1.2-.06c0,.55-.12,2.08-.12,4.08v2.47a32.92,32.92,0,0,0,.15,4l-.87,0a8.81,8.81,0,0,0-1.17.05c.07-.56.12-2.27.12-4.07v-2.47"/><path class="a" d="M105.07,179.76a9.4,9.4,0,0,0-1.16.05c.26-.32.89-1.1,1.78-2.41l2-3-1.87-3a10.22,10.22,0,0,0-1.62-2.16c.38,0,.83,0,1.29,0a5.82,5.82,0,0,0,1.08-.06,39.78,39.78,0,0,0,2.22,3.85c.41-.58,1-1.61,1.2-1.87a12.09,12.09,0,0,0,1-1.95,5.27,5.27,0,0,0,.7,0c.55,0,1.08,0,1.25-.06a18.28,18.28,0,0,0-1.5,1.94l-2,2.91c.41.74,1.1,1.86,1.71,2.79a19.21,19.21,0,0,0,2.15,2.95,9.44,9.44,0,0,0-1.09,0c-.38,0-1.23,0-1.47.05-.08-.24-.71-1.44-.87-1.74l-1.5-2.65-1.63,2.7c-.42.71-.77,1.47-.88,1.66l-.8,0"/></svg>