<svg xmlns="http://www.w3.org/2000/svg" viewBox="0 0 180 180"><defs><style>.a{fill:#fff;opacity:0;}.b{fill:none;stroke:#fff;stroke-linecap:round;stroke-linejoin:round;stroke-width:1.8px;}</style></defs><title>s_bg_2</title><circle class="a" cx="90" cy="90" r="90"/><circle class="b" cx="77" cy="49.47" r="4.6"/><circle class="b" cx="102.67" cy="49.47" r="4.6" transform="translate(17.67 125.39) rotate(-67.5)"/><path class="b" d="M118.8,74.38A24.1,24.1,0,0,1,120.41,72l-.81-.51c-.68-.46-1.33-1-2-1.48a32.82,32.82,0,0,1-6.49-7.65c-.31-.47-.59-.94-.86-1.39-1.38-2.23-2.57-4-5.75-4h-.06c-3.19,0-4.38,1.79-5.75,4-.28.45-.56.92-.87,1.39A32.82,32.82,0,0,1,91.36,70c-.44.36-.9.69-1.36,1-.46-.33-.92-.66-1.36-1a32.82,32.82,0,0,1-6.49-7.65c-.31-.47-.59-.94-.87-1.39-1.37-2.23-2.56-4-5.75-4h-.06c-3.18,0-4.37,1.79-5.75,4-.27.45-.55.92-.86,1.39A32.82,32.82,0,0,1,62.37,70c-.64.52-1.29,1-2,1.48l-.81.51a24.1,24.1,0,0,1,1.61,2.36,24.54,24.54,0,0,0,8.13-6.06v9.43c.07,10.24.32,19.63.32,19.63h3.52c-.16,0,.3-10.18.36-11,.1-1.39.23-2.78.36-4.16a18.56,18.56,0,0,1,.23-2,1.73,1.73,0,0,1,1.27-1.53h.23a1.71,1.71,0,0,1,1.26,1.53,16.28,16.28,0,0,1,.23,2c.13,1.38.26,2.77.37,4.16.06.8.52,11,.36,11h3.52s.24-9.39.31-19.63V68.32a24.57,24.57,0,0,0,8.14,6.06l.19-.31.19.31a24.57,24.57,0,0,0,8.14-6.06v.42c-.58,6-4.17,11.45-5.07,13,1.06,1.54,3.12,2.69,5.63,3.4.12,6.25.38,12.29.38,12.29h3.07c-.12,0,.38-8.57.52-11.55a13.14,13.14,0,0,0,1.62.06h.09c.3,0,1,0,1.29,0,.14,3,.41,11.51.29,11.51h3s.52-6.34.93-12.23c2.53-.71,4.67-1.91,5.74-3.46-.92-1.53-4.66-7.31-5.11-13.36A24.57,24.57,0,0,0,118.8,74.38Z"/></svg>