<svg xmlns="http://www.w3.org/2000/svg" viewBox="0 0 180 180"><defs><style>.a{fill:#fff;opacity:0;}.b{fill:none;stroke:#fff;stroke-linecap:round;stroke-linejoin:round;stroke-width:1.8px;}</style></defs><title>s_bg_1</title><circle class="a" cx="90" cy="90" r="90"/><circle class="b" cx="72.54" cy="67.28" r="4.94"/><circle class="b" cx="100.83" cy="46.8" r="4.94"/><path class="b" d="M109.2,59c-1.49-2.41-2.77-4.32-6.24-4.32a5.61,5.61,0,0,0-4.29,1.8A7.86,7.86,0,0,0,97,59.06C92.61,68.94,84.43,68.93,84.43,69s-.18.29-.21.34q-.21.32-.42.6a16.58,16.58,0,0,1-1.43,1.69,14,14,0,0,1-5.09,3.48,12.87,12.87,0,0,1-4.52.69A14,14,0,0,1,69,75.41a13.11,13.11,0,0,1-5.28-3,16.35,16.35,0,0,1-2.63-3,14.28,14.28,0,0,0-2.59,2.29c2.76,4.49,5.41,7.26,7.63,8.72A132.88,132.88,0,0,0,66.48,98h3.68c0-8.33.51-9.33,2.06-9.41,1.55.08,2.06.8,2.06,9.41H78c.29,0,.91-14.49.49-17.22,2.7-2,5.22-3.7,7.87-7.86,3.54.3,7.85-2.34,10-5.19v8c0,.19,0,.34,0,.53,0,11,.32,21.75.32,21.75h3.77c0-3.17.15-7.75.33-10.92a42.39,42.39,0,0,1,.49-6.66,5.26,5.26,0,0,1,.59-1.78,1.32,1.32,0,0,1,1.34-.63,1.86,1.86,0,0,1,1.36,1.64,18.4,18.4,0,0,1,.24,2.11c.14,1.49.28,3,.4,4.46.06.86.55,11.78.38,11.78h3.78s.26-10.07.34-21.05V66.27c2.49,3.28,5.47,6.08,8.72,7.07a25,25,0,0,1,1.72-2.53l-.86-.54c-.73-.5-1.43-1-2.12-1.6a35.29,35.29,0,0,1-7-8.19C109.79,60,109.49,59.47,109.2,59Z"/></svg>