<svg xmlns="http://www.w3.org/2000/svg" viewBox="0 0 40 40"><defs><style>.cls-1{opacity:0;}.cls-2{fill:#fff;}</style></defs><title>fdf</title><g id="レイヤー_2" data-name="レイヤー 2"><g id="レイヤー_1-2" data-name="レイヤー 1"><g class="cls-1"><path class="cls-2" d="M20,1A19,19,0,1,1,1,20,19,19,0,0,1,20,1m0-1A20,20,0,1,0,40,20,20,20,0,0,0,20,0Z"/></g><path class="cls-2" d="M7.28,24.2V15.54a13.22,13.22,0,0,1,.3-2.94A6.48,6.48,0,0,1,11.47,8,9.71,9.71,0,0,1,15,7.28h9.46a13.22,13.22,0,0,1,2.94.3,6.48,6.48,0,0,1,4.65,3.89A9.71,9.71,0,0,1,32.72,15v9.46a13.22,13.22,0,0,1-.3,2.94,6.48,6.48,0,0,1-3.89,4.65,9.71,9.71,0,0,1-3.53.67H15.6a13.28,13.28,0,0,1-2.94-.3A6.48,6.48,0,0,1,8,28.53,9.71,9.71,0,0,1,7.34,25C7.33,24.73,7.29,24.46,7.28,24.2ZM30.54,20h0V16.76a17.71,17.71,0,0,0-.17-3,4.64,4.64,0,0,0-1.07-2.58,4.75,4.75,0,0,0-3.42-1.61c-1.5-.1-3-.13-4.49-.15h-4.5a16.79,16.79,0,0,0-3,.18,4.57,4.57,0,0,0-2.57,1.06A4.69,4.69,0,0,0,9.7,14.09c-.1,1.5-.13,3-.14,4.5s0,3,0,4.48A18.12,18.12,0,0,0,9.72,26a4.65,4.65,0,0,0,1.08,2.59,4.72,4.72,0,0,0,3.42,1.62c1.49.09,3,.12,4.5.14s3,0,4.48,0a28.3,28.3,0,0,0,3.32-.19A4.22,4.22,0,0,0,30.13,27a9.72,9.72,0,0,0,.27-1.85C30.52,23.43,30.52,21.72,30.54,20Z"/><path class="cls-2" d="M26.63,20A6.58,6.58,0,1,1,20,13.44h0A6.56,6.56,0,0,1,26.63,20Zm-6.57,4.25A4.25,4.25,0,1,0,15.81,20h0a4.25,4.25,0,0,0,4.25,4.24Z"/><path class="cls-2" d="M26.87,11.63a1.6,1.6,0,0,1,1.69,1.53A1.63,1.63,0,0,1,27,14.86a1.6,1.6,0,0,1-1.68-1.52h0v-.16A1.6,1.6,0,0,1,26.87,11.63Z"/></g></g></svg>