<svg xmlns="http://www.w3.org/2000/svg" viewBox="0 0 40 40"><defs><style>.cls-1{opacity:0.95;}.cls-2{fill:#fff;}</style></defs><title>sns_ig_white</title><g id="レイヤー_2" data-name="レイヤー 2"><g id="menu"><g class="cls-1"><path class="cls-2" d="M20,1A19,19,0,1,1,1,20,19,19,0,0,1,20,1m0-1A20,20,0,1,0,40,20,20,20,0,0,0,20,0Z"/></g><path class="cls-2" d="M12.08,22.61V17.39l0-.15a8,8,0,0,1,.19-1.82,4,4,0,0,1,2.41-2.88,5.88,5.88,0,0,1,2.19-.42l.49,0h5.22l.15,0a8,8,0,0,1,1.82.19,4,4,0,0,1,2.88,2.41,5.88,5.88,0,0,1,.42,2.19c0,.16,0,.33,0,.49v5.22l0,.15a8,8,0,0,1-.19,1.82,4,4,0,0,1-2.41,2.88,5.88,5.88,0,0,1-2.19.42l-.49,0H17.39l-.15,0a8,8,0,0,1-1.82-.19,4,4,0,0,1-2.88-2.41,5.88,5.88,0,0,1-.42-2.19C12.11,22.94,12.09,22.77,12.08,22.61ZM26.5,20h0c0-.66,0-1.32,0-2s0-1.25-.11-1.86a2.85,2.85,0,0,0-.66-1.6,2.92,2.92,0,0,0-2.12-1c-.93-.06-1.86-.08-2.79-.09s-1.85,0-2.78,0c-.62,0-1.25,0-1.86.11a2.85,2.85,0,0,0-1.6.66,2.92,2.92,0,0,0-1,2.12c-.06.93-.08,1.86-.09,2.79s0,1.85,0,2.78c0,.62,0,1.25.11,1.86a2.85,2.85,0,0,0,.66,1.6,2.92,2.92,0,0,0,2.12,1c.93.06,1.86.08,2.79.09s1.85,0,2.78,0A15.68,15.68,0,0,0,24,26.34a2.59,2.59,0,0,0,2.24-2,5.5,5.5,0,0,0,.17-1.15C26.48,22.13,26.48,21.07,26.5,20Z"/><path class="cls-2" d="M24.07,20A4.07,4.07,0,1,1,20,15.93,4.07,4.07,0,0,1,24.07,20ZM20,22.63A2.63,2.63,0,1,0,17.37,20,2.63,2.63,0,0,0,20,22.63Z"/><path class="cls-2" d="M24.22,14.82a1,1,0,1,1-.95.95A1,1,0,0,1,24.22,14.82Z"/></g></g></svg>