<svg xmlns="http://www.w3.org/2000/svg" viewBox="0 0 40 40"><defs><style>.a{fill:none;stroke:#fff;stroke-miterlimit:10;opacity:0.95;}.b{fill:#fff;}</style></defs><title>sns_tw_white</title><circle class="a" cx="20" cy="20" r="18.5"/><path class="b" d="M27.92,15.09a6.83,6.83,0,0,1-1.86.51,3.29,3.29,0,0,0,1.43-1.8,6.73,6.73,0,0,1-2.07.79,3.25,3.25,0,0,0-5.62,2.22,3.57,3.57,0,0,0,.08.74,9.22,9.22,0,0,1-6.7-3.39,3.21,3.21,0,0,0-.44,1.63,3.25,3.25,0,0,0,1.45,2.71,3.34,3.34,0,0,1-1.48-.41v0a3.25,3.25,0,0,0,2.61,3.19,3.43,3.43,0,0,1-.86.11,3.15,3.15,0,0,1-.61-.06,3.25,3.25,0,0,0,3,2.26A6.68,6.68,0,0,1,12.08,25a9.24,9.24,0,0,0,14.23-7.79c0-.14,0-.28,0-.42A6.47,6.47,0,0,0,27.92,15.09Z"/></svg>