<svg xmlns="http://www.w3.org/2000/svg" viewBox="0 0 40 40"><defs><style>.cls-1{opacity:0;}.cls-2{fill:#fff;}</style></defs><title>アセット 2</title><g id="レイヤー_2" data-name="レイヤー 2"><g id="レイヤー_1-2" data-name="レイヤー 1"><g class="cls-1"><path class="cls-2" d="M20,1A19,19,0,1,1,1,20,19,19,0,0,1,20,1m0-1A20,20,0,1,0,40,20,20,20,0,0,0,20,0Z"/></g><path class="cls-2" d="M31.52,18.38C31.52,13.22,26.36,9,20,9S8.48,13.29,8.48,18.38c0,4.62,4.1,8.49,9.63,9.22.37.08.88.25,1,.57a2.28,2.28,0,0,1,0,1S19,30,19,30.2s-.24,1.13,1,.62A37.12,37.12,0,0,0,29,24.13h0A8.29,8.29,0,0,0,31.52,18.38Zm-16,3.07H13.2a.63.63,0,0,1-.61-.61V16.26a.62.62,0,0,1,.61-.6.6.6,0,0,1,.6.58v4h1.69a.61.61,0,0,1,.6.61A.62.62,0,0,1,15.49,21.45Zm2.36-.61a.61.61,0,1,1-1.21,0V16.26a.61.61,0,1,1,1.21,0Zm5.52,0a.6.6,0,0,1-.41.57h-.19a.62.62,0,0,1-.49-.24L19.93,18V20.8a.61.61,0,0,1-.61.61.61.61,0,0,1-.61-.61V16.26a.61.61,0,0,1,.42-.57.31.31,0,0,1,.19,0,.57.57,0,0,1,.47.23l2.39,3.17V16.26a.6.6,0,0,1,.6-.6h0a.62.62,0,0,1,.61.6ZM27,17.94a.61.61,0,0,1,.61.61.61.61,0,0,1-.61.61H25.39v1.07H27a.61.61,0,0,1,.61.61.63.63,0,0,1-.61.61H24.78a.63.63,0,0,1-.61-.61V18.55h0V16.26a.62.62,0,0,1,.61-.6H27a.61.61,0,0,1,.61.61.61.61,0,0,1-.61.61H25.39V18Z"/></g></g></svg>