<svg xmlns="http://www.w3.org/2000/svg" viewBox="0 0 40 40"><defs><style>.a{fill:none;stroke:#fff;stroke-miterlimit:10;opacity:0.95;}.b{fill:#fff;}</style></defs><title>sns_yt_white</title><circle class="a" cx="20" cy="20" r="18.5"/><path class="b" d="M27.71,14.66c-.89-.72-4-1.29-7.71-1.29s-6.82.57-7.71,1.29-1,3.64-1,5.34.17,4.68,1,5.34,4,1.29,7.71,1.29,6.82-.57,7.71-1.29,1-3.64,1-5.34S28.53,15.32,27.71,14.66Zm-5.1,5.42-4,2.41a.07.07,0,0,1-.09,0,.08.08,0,0,1-.05-.08V17.59a.08.08,0,0,1,.05-.08.08.08,0,0,1,.09,0l4,2.41a.09.09,0,0,1,0,.16Z"/></svg>