<svg xmlns="http://www.w3.org/2000/svg" viewBox="0 0 40 40"><defs><style>.cls-1{opacity:0.95;}.cls-2{fill:#fff;}</style></defs><title>sns_ln_white</title><g id="レイヤー_2" data-name="レイヤー 2"><g id="menu"><g class="cls-1"><path class="cls-2" d="M20,1A19,19,0,1,1,1,20,19,19,0,0,1,20,1m0-1A20,20,0,1,0,40,20,20,20,0,0,0,20,0Z"/></g><path class="cls-2" d="M29.7,19.2c0-4.25-4.26-7.71-9.5-7.71S10.7,15,10.7,19.2c0,3.81,3.38,7,7.94,7.6.31.07.73.21.84.47a1.92,1.92,0,0,1,0,.86s-.11.67-.13.82-.2.93.82.51a30.64,30.64,0,0,0,7.46-5.52h0A6.84,6.84,0,0,0,29.7,19.2ZM16.48,21.73H14.59a.51.51,0,0,1-.5-.5V17.45a.5.5,0,0,1,.5-.49.49.49,0,0,1,.5.49v3.28h1.39a.5.5,0,0,1,.5.5A.51.51,0,0,1,16.48,21.73Zm1.95-.5a.5.5,0,1,1-1,0V17.45a.5.5,0,0,1,1,0Zm4.55,0a.51.51,0,0,1-.34.47l-.16,0a.51.51,0,0,1-.4-.2l-1.94-2.64v2.34a.5.5,0,1,1-1,0V17.45a.51.51,0,0,1,.34-.47.41.41,0,0,1,.16,0,.49.49,0,0,1,.39.19L22,19.79V17.45a.49.49,0,0,1,.5-.49.5.5,0,0,1,.5.49ZM26,18.84a.5.5,0,0,1,.5.5.5.5,0,0,1-.5.5H24.64v.89H26a.5.5,0,0,1,.5.5.51.51,0,0,1-.5.5H24.14a.51.51,0,0,1-.5-.5V19.34h0V17.45a.5.5,0,0,1,.5-.49H26a.5.5,0,1,1,0,1H24.64v.89Z"/></g></g></svg>